<?xml version="1.0" encoding="UTF-8" standalone="no"?><svg xmlns="http://www.w3.org/2000/svg" xmlns:xlink="http://www.w3.org/1999/xlink" clip-rule="evenodd" stroke-miterlimit="4.00" viewBox="0 0 1920 1080"><desc>SVG generated by Keynote</desc><defs></defs><g transform="matrix(1.00, 0.00, -0.00, -1.00, 0.0, 1080.0)"><path d="M 0.0 1080.0 L 1920.0 1080.0 L 1920.0 0.0 L 0.0 0.0 Z M 0.0 1080.0 " fill="#212121"></path><image xlink:href="../../7CE542E9-33FC-458B-B573-B6A4D44EDA97/assets/22E129BBAE460F5FC497A5D36D4714AB.png" width="529.00" height="769.00" transform="matrix(1.53, 0.00, -0.00, -1.52, 1118.0, 1161.0)"></image><image xlink:href="ECCC792C51797F15FE58D9CE1418435B.png" width="841.00" height="1216.00" transform="matrix(1.00, 0.00, -0.00, 1.00, 1101.0, -44.0)"></image><image xlink:href="8FB2260A2FF5A79335F4DDAFFA35E78B.png" width="3501.00" height="505.00" transform="matrix(0.24, 0.00, -0.00, -0.24, 1101.5, -44.1)"></image><g><clipPath id="clip-560"><path d="M 626.1 916.8 L 882.2 916.8 L 882.2 968.5 L 626.1 968.5 Z M 626.1 916.8 "></path></clipPath><g clip-path="url(#clip-560)"><path d="M 627.1 967.5 L 881.2 967.5 L 881.2 917.8 L 627.1 917.8 Z M 627.1 967.5 " fill="#34A4DA"></path></g></g><g><clipPath id="clip-561"><path d="M 623.3 906.4 L 885.1 906.4 L 885.1 971.4 L 623.3 971.4 Z M 623.3 906.4 "></path></clipPath><g clip-path="url(#clip-561)"><text xml:space="preserve" font-family="DINCondensed-Bold" font-weight="bold" font-size="38.0" fill="#FFFFFF" transform="matrix(1.00, 0.00, -0.00, -1.00, 691.0, 934.0)">S</text><text xml:space="preserve" font-family="DINCondensed-Bold" font-weight="bold" font-size="38.0" fill="#FFFFFF" transform="matrix(1.00, 0.00, -0.00, -1.00, 706.4, 934.0)">O</text><text xml:space="preserve" font-family="DINCondensed-Bold" font-weight="bold" font-size="38.0" fill="#FFFFFF" transform="matrix(1.00, 0.00, -0.00, -1.00, 722.6, 934.0)">F</text><text xml:space="preserve" font-family="DINCondensed-Bold" font-weight="bold" font-size="38.0" fill="#FFFFFF" transform="matrix(1.00, 0.00, -0.00, -1.00, 736.7, 934.0)">T</text><text xml:space="preserve" font-family="DINCondensed-Bold" font-weight="bold" font-size="38.0" fill="#FFFFFF" transform="matrix(1.00, 0.00, -0.00, -1.00, 749.3, 934.0)">W</text><text xml:space="preserve" font-family="DINCondensed-Bold" font-weight="bold" font-size="38.0" fill="#FFFFFF" transform="matrix(1.00, 0.00, -0.00, -1.00, 770.7, 934.0)">A</text><text xml:space="preserve" font-family="DINCondensed-Bold" font-weight="bold" font-size="38.0" fill="#FFFFFF" transform="matrix(1.00, 0.00, -0.00, -1.00, 786.2, 934.0)">R</text><text xml:space="preserve" font-family="DINCondensed-Bold" font-weight="bold" font-size="38.0" fill="#FFFFFF" transform="matrix(1.00, 0.00, -0.00, -1.00, 802.3, 934.0)">E</text></g></g><g><clipPath id="clip-562"><path d="M 841.5 808.5 L 1037.8 808.5 L 1037.8 1032.5 L 841.5 1032.5 Z M 841.5 808.5 "></path></clipPath><g clip-path="url(#clip-562)"><text xml:space="preserve" font-family="DINCondensed-Bold" font-weight="bold" font-size="132.0" fill="#FFFFFF" transform="matrix(1.00, 0.00, -0.00, -1.00, 874.0, 906.0)"> </text><text xml:space="preserve" font-family="DINCondensed-Bold" font-weight="bold" font-size="132.0" fill="#FFFFFF" transform="matrix(1.00, 0.00, -0.00, -1.00, 898.6, 906.0)">=</text><text xml:space="preserve" font-family="DINCondensed-Bold" font-weight="bold" font-size="132.0" fill="#FFFFFF" transform="matrix(1.00, 0.00, -0.00, -1.00, 977.8, 906.0)"> </text></g></g><g><clipPath id="clip-563"><path d="M 1001.5 916.8 L 1257.6 916.8 L 1257.6 968.5 L 1001.5 968.5 Z M 1001.5 916.8 "></path></clipPath><g clip-path="url(#clip-563)"><path d="M 1002.5 967.5 L 1256.6 967.5 L 1256.6 917.8 L 1002.5 917.8 Z M 1002.5 967.5 " fill="#FDCA55"></path></g></g><g><clipPath id="clip-564"><path d="M 998.6 906.4 L 1260.4 906.4 L 1260.4 971.4 L 998.6 971.4 Z M 998.6 906.4 "></path></clipPath><g clip-path="url(#clip-564)"><text xml:space="preserve" font-family="DINCondensed-Bold" font-weight="bold" font-size="38.0" fill="#222222" transform="matrix(1.00, 0.00, -0.00, -1.00, 1030.0, 934.0)">B</text><text xml:space="preserve" font-family="DINCondensed-Bold" font-weight="bold" font-size="38.0" fill="#222222" transform="matrix(1.00, 0.00, -0.00, -1.00, 1046.2, 934.0)">U</text><text xml:space="preserve" font-family="DINCondensed-Bold" font-weight="bold" font-size="38.0" fill="#222222" transform="matrix(1.00, 0.00, -0.00, -1.00, 1062.4, 934.0)">S</text><text xml:space="preserve" font-family="DINCondensed-Bold" font-weight="bold" font-size="38.0" fill="#222222" transform="matrix(1.00, 0.00, -0.00, -1.00, 1077.8, 934.0)">I</text><text xml:space="preserve" font-family="DINCondensed-Bold" font-weight="bold" font-size="38.0" fill="#222222" transform="matrix(1.00, 0.00, -0.00, -1.00, 1085.6, 934.0)">N</text><text xml:space="preserve" font-family="DINCondensed-Bold" font-weight="bold" font-size="38.0" fill="#222222" transform="matrix(1.00, 0.00, -0.00, -1.00, 1102.4, 934.0)">E</text><text xml:space="preserve" font-family="DINCondensed-Bold" font-weight="bold" font-size="38.0" fill="#222222" transform="matrix(1.00, 0.00, -0.00, -1.00, 1116.5, 934.0)">S</text><text xml:space="preserve" font-family="DINCondensed-Bold" font-weight="bold" font-size="38.0" fill="#222222" transform="matrix(1.00, 0.00, -0.00, -1.00, 1131.9, 934.0)">S</text><text xml:space="preserve" font-family="DINCondensed-Bold" font-weight="bold" font-size="38.0" fill="#222222" transform="matrix(1.00, 0.00, -0.00, -1.00, 1147.3, 934.0)"> </text><text xml:space="preserve" font-family="DINCondensed-Bold" font-weight="bold" font-size="38.0" fill="#222222" transform="matrix(1.00, 0.00, -0.00, -1.00, 1154.4, 934.0)">V</text><text xml:space="preserve" font-family="DINCondensed-Bold" font-weight="bold" font-size="38.0" fill="#222222" transform="matrix(1.00, 0.00, -0.00, -1.00, 1168.5, 934.0)">A</text><text xml:space="preserve" font-family="DINCondensed-Bold" font-weight="bold" font-size="38.0" fill="#222222" transform="matrix(1.00, 0.00, -0.00, -1.00, 1183.9, 934.0)">L</text><text xml:space="preserve" font-family="DINCondensed-Bold" font-weight="bold" font-size="38.0" fill="#222222" transform="matrix(1.00, 0.00, -0.00, -1.00, 1198.0, 934.0)">U</text><text xml:space="preserve" font-family="DINCondensed-Bold" font-weight="bold" font-size="38.0" fill="#222222" transform="matrix(1.00, 0.00, -0.00, -1.00, 1214.2, 934.0)">E</text></g></g><g><clipPath id="clip-565"><path d="M 623.4 464.9 L 879.5 464.9 L 879.5 516.5 L 623.4 516.5 Z M 623.4 464.9 "></path></clipPath><g clip-path="url(#clip-565)"><path d="M 624.4 515.5 L 878.5 515.5 L 878.5 465.9 L 624.4 465.9 Z M 624.4 515.5 " fill="#34A4DA"></path></g></g><g><clipPath id="clip-566"><path d="M 620.5 454.4 L 882.4 454.4 L 882.4 519.4 L 620.5 519.4 Z M 620.5 454.4 "></path></clipPath><g clip-path="url(#clip-566)"><text xml:space="preserve" font-family="DINCondensed-Bold" font-weight="bold" font-size="38.0" fill="#FFFFFF" transform="matrix(1.00, 0.00, -0.00, -1.00, 649.0, 482.0)">I</text><text xml:space="preserve" font-family="DINCondensed-Bold" font-weight="bold" font-size="38.0" fill="#FFFFFF" transform="matrix(1.00, 0.00, -0.00, -1.00, 656.8, 482.0)">N</text><text xml:space="preserve" font-family="DINCondensed-Bold" font-weight="bold" font-size="38.0" fill="#FFFFFF" transform="matrix(1.00, 0.00, -0.00, -1.00, 673.6, 482.0)">F</text><text xml:space="preserve" font-family="DINCondensed-Bold" font-weight="bold" font-size="38.0" fill="#FFFFFF" transform="matrix(1.00, 0.00, -0.00, -1.00, 687.7, 482.0)">R</text><text xml:space="preserve" font-family="DINCondensed-Bold" font-weight="bold" font-size="38.0" fill="#FFFFFF" transform="matrix(1.00, 0.00, -0.00, -1.00, 703.9, 482.0)">A</text><text xml:space="preserve" font-family="DINCondensed-Bold" font-weight="bold" font-size="38.0" fill="#FFFFFF" transform="matrix(1.00, 0.00, -0.00, -1.00, 719.3, 482.0)">S</text><text xml:space="preserve" font-family="DINCondensed-Bold" font-weight="bold" font-size="38.0" fill="#FFFFFF" transform="matrix(1.00, 0.00, -0.00, -1.00, 734.8, 482.0)">T</text><text xml:space="preserve" font-family="DINCondensed-Bold" font-weight="bold" font-size="38.0" fill="#FFFFFF" transform="matrix(1.00, 0.00, -0.00, -1.00, 747.4, 482.0)">R</text><text xml:space="preserve" font-family="DINCondensed-Bold" font-weight="bold" font-size="38.0" fill="#FFFFFF" transform="matrix(1.00, 0.00, -0.00, -1.00, 763.6, 482.0)">U</text><text xml:space="preserve" font-family="DINCondensed-Bold" font-weight="bold" font-size="38.0" fill="#FFFFFF" transform="matrix(1.00, 0.00, -0.00, -1.00, 779.8, 482.0)">C</text><text xml:space="preserve" font-family="DINCondensed-Bold" font-weight="bold" font-size="38.0" fill="#FFFFFF" transform="matrix(1.00, 0.00, -0.00, -1.00, 795.2, 482.0)">T</text><text xml:space="preserve" font-family="DINCondensed-Bold" font-weight="bold" font-size="38.0" fill="#FFFFFF" transform="matrix(1.00, 0.00, -0.00, -1.00, 807.8, 482.0)">U</text><text xml:space="preserve" font-family="DINCondensed-Bold" font-weight="bold" font-size="38.0" fill="#FFFFFF" transform="matrix(1.00, 0.00, -0.00, -1.00, 824.0, 482.0)">R</text><text xml:space="preserve" font-family="DINCondensed-Bold" font-weight="bold" font-size="38.0" fill="#FFFFFF" transform="matrix(1.00, 0.00, -0.00, -1.00, 840.2, 482.0)">E</text></g></g><g><clipPath id="clip-567"><path d="M 838.7 356.5 L 1035.1 356.5 L 1035.1 580.5 L 838.7 580.5 Z M 838.7 356.5 "></path></clipPath><g clip-path="url(#clip-567)"><text xml:space="preserve" font-family="DINCondensed-Bold" font-weight="bold" font-size="132.0" fill="#FFFFFF" transform="matrix(1.00, 0.00, -0.00, -1.00, 872.0, 454.0)"> </text><text xml:space="preserve" font-family="DINCondensed-Bold" font-weight="bold" font-size="132.0" fill="#FFFFFF" transform="matrix(1.00, 0.00, -0.00, -1.00, 896.6, 454.0)">=</text><text xml:space="preserve" font-family="DINCondensed-Bold" font-weight="bold" font-size="132.0" fill="#FFFFFF" transform="matrix(1.00, 0.00, -0.00, -1.00, 975.8, 454.0)"> </text></g></g><g><clipPath id="clip-568"><path d="M 998.8 464.9 L 1254.8 464.9 L 1254.8 516.5 L 998.8 516.5 Z M 998.8 464.9 "></path></clipPath><g clip-path="url(#clip-568)"><path d="M 999.8 515.5 L 1253.8 515.5 L 1253.8 465.9 L 999.8 465.9 Z M 999.8 515.5 " fill="#FDCA55"></path></g></g><g><clipPath id="clip-569"><path d="M 995.9 454.4 L 1257.7 454.4 L 1257.7 519.4 L 995.9 519.4 Z M 995.9 454.4 "></path></clipPath><g clip-path="url(#clip-569)"><text xml:space="preserve" font-family="DINCondensed-Bold" font-weight="bold" font-size="38.0" fill="#222222" transform="matrix(1.00, 0.00, -0.00, -1.00, 1028.0, 482.0)">B</text><text xml:space="preserve" font-family="DINCondensed-Bold" font-weight="bold" font-size="38.0" fill="#222222" transform="matrix(1.00, 0.00, -0.00, -1.00, 1044.2, 482.0)">U</text><text xml:space="preserve" font-family="DINCondensed-Bold" font-weight="bold" font-size="38.0" fill="#222222" transform="matrix(1.00, 0.00, -0.00, -1.00, 1060.4, 482.0)">S</text><text xml:space="preserve" font-family="DINCondensed-Bold" font-weight="bold" font-size="38.0" fill="#222222" transform="matrix(1.00, 0.00, -0.00, -1.00, 1075.8, 482.0)">I</text><text xml:space="preserve" font-family="DINCondensed-Bold" font-weight="bold" font-size="38.0" fill="#222222" transform="matrix(1.00, 0.00, -0.00, -1.00, 1083.6, 482.0)">N</text><text xml:space="preserve" font-family="DINCondensed-Bold" font-weight="bold" font-size="38.0" fill="#222222" transform="matrix(1.00, 0.00, -0.00, -1.00, 1100.4, 482.0)">E</text><text xml:space="preserve" font-family="DINCondensed-Bold" font-weight="bold" font-size="38.0" fill="#222222" transform="matrix(1.00, 0.00, -0.00, -1.00, 1114.5, 482.0)">S</text><text xml:space="preserve" font-family="DINCondensed-Bold" font-weight="bold" font-size="38.0" fill="#222222" transform="matrix(1.00, 0.00, -0.00, -1.00, 1129.9, 482.0)">S</text><text xml:space="preserve" font-family="DINCondensed-Bold" font-weight="bold" font-size="38.0" fill="#222222" transform="matrix(1.00, 0.00, -0.00, -1.00, 1145.3, 482.0)"> </text><text xml:space="preserve" font-family="DINCondensed-Bold" font-weight="bold" font-size="38.0" fill="#222222" transform="matrix(1.00, 0.00, -0.00, -1.00, 1152.4, 482.0)">V</text><text xml:space="preserve" font-family="DINCondensed-Bold" font-weight="bold" font-size="38.0" fill="#222222" transform="matrix(1.00, 0.00, -0.00, -1.00, 1166.5, 482.0)">A</text><text xml:space="preserve" font-family="DINCondensed-Bold" font-weight="bold" font-size="38.0" fill="#222222" transform="matrix(1.00, 0.00, -0.00, -1.00, 1181.9, 482.0)">L</text><text xml:space="preserve" font-family="DINCondensed-Bold" font-weight="bold" font-size="38.0" fill="#222222" transform="matrix(1.00, 0.00, -0.00, -1.00, 1196.0, 482.0)">U</text><text xml:space="preserve" font-family="DINCondensed-Bold" font-weight="bold" font-size="38.0" fill="#222222" transform="matrix(1.00, 0.00, -0.00, -1.00, 1212.2, 482.0)">E</text></g></g><g><clipPath id="clip-570"><path d="M 877.2 440.7 L 986.4 549.9 L 995.6 540.7 L 886.4 431.5 Z M 877.2 440.7 "></path></clipPath><g clip-path="url(#clip-570)"><path d="M 901.9 452.3 C 901.3 452.2 900.7 450.9 900.2 450.8 M 901.9 452.3 C 902.4 449.9 900.8 448.1 898.7 445.6 C 896.3 443.1 897.5 447.0 896.6 447.3 C 892.8 444.6 893.8 443.6 895.8 442.5 C 893.6 442.3 891.7 436.8 890.6 439.5 C 895.8 444.7 886.5 436.3 889.7 441.7 C 889.9 442.5 888.1 441.7 887.6 441.3 C 888.3 443.5 884.9 442.0 886.6 444.9 C 885.7 446.4 885.8 445.4 886.4 447.9 C 886.9 448.6 887.0 448.0 887.2 447.6 C 888.9 446.4 888.2 450.2 890.3 450.5 C 889.6 453.5 892.9 452.4 892.7 450.7 C 893.6 452.0 892.9 455.2 895.4 455.0 C 895.1 456.6 898.7 458.9 898.1 456.0 C 897.5 453.9 899.5 454.8 900.1 454.6 C 900.1 453.7 897.7 452.5 897.8 451.9 C 898.6 452.1 901.6 453.8 899.1 451.4 C 900.5 451.5 899.7 449.9 901.9 452.3 C 901.9 452.3 901.9 452.3 901.9 452.3 Z M 894.1 442.4 C 894.6 441.9 894.9 443.3 894.1 442.4 C 894.1 442.4 894.1 442.4 894.1 442.4 Z M 893.5 455.0 C 894.0 454.5 894.3 455.9 893.5 455.0 C 893.5 455.0 893.5 455.0 893.5 455.0 Z M 887.6 448.1 C 888.1 447.6 888.4 448.9 887.6 448.1 C 887.6 448.1 887.6 448.1 887.6 448.1 Z M 896.1 445.0 C 897.1 446.8 894.2 444.6 894.5 443.9 C 894.7 444.3 896.2 444.3 896.1 445.0 C 896.1 445.0 896.1 445.0 896.1 445.0 Z M 893.4 448.1 C 893.7 448.0 894.4 448.5 893.8 448.9 C 893.3 448.7 893.2 448.2 893.4 448.1 C 893.4 448.1 893.4 448.1 893.4 448.1 Z M 888.6 439.2 C 888.9 439.1 889.5 439.6 889.0 440.1 C 888.5 439.8 888.3 439.3 888.6 439.2 C 888.6 439.2 888.6 439.2 888.6 439.2 Z M 896.4 447.9 C 896.6 448.3 896.3 448.9 895.8 448.6 C 895.9 448.2 895.0 447.1 896.4 447.9 C 896.4 447.9 896.4 447.9 896.4 447.9 Z M 900.2 448.4 C 901.1 449.8 898.0 448.2 898.3 448.0 C 898.2 447.3 899.9 447.4 900.2 448.4 C 900.2 448.4 900.2 448.4 900.2 448.4 Z M 896.4 449.3 C 897.1 450.5 895.6 449.2 896.4 449.3 C 896.4 449.3 896.4 449.3 896.4 449.3 Z M 885.9 443.8 C 886.6 445.0 885.1 443.7 885.9 443.8 C 885.9 443.8 885.9 443.8 885.9 443.8 Z M 889.4 450.4 C 890.1 451.6 888.7 450.3 889.4 450.4 C 889.4 450.4 889.4 450.4 889.4 450.4 Z M 892.6 443.5 C 890.9 441.8 893.6 442.0 892.6 443.5 C 892.6 443.5 892.6 443.5 892.6 443.5 Z M 903.0 451.0 C 901.3 449.3 904.0 449.5 903.0 451.0 C 903.0 451.0 903.0 451.0 903.0 451.0 Z M 986.8 535.8 C 988.6 537.0 984.3 529.4 984.6 533.6 C 983.7 535.9 979.8 531.7 982.3 531.3 C 981.3 529.9 981.3 529.8 979.9 529.9 C 980.9 528.5 978.7 525.1 977.1 524.7 C 975.5 525.1 978.8 526.7 976.2 526.2 C 972.3 523.0 975.3 527.5 972.6 527.5 C 972.5 527.4 973.1 526.7 972.4 526.7 C 971.0 527.8 972.2 530.7 970.4 530.7 C 971.1 531.0 972.3 534.9 972.3 532.8 C 973.1 531.3 973.7 537.0 975.3 534.8 C 975.3 536.6 977.4 536.2 977.1 538.1 C 977.6 539.0 978.5 537.9 978.7 537.6 C 979.5 536.6 977.5 540.3 980.0 539.8 C 979.7 540.3 982.7 543.0 981.3 540.2 C 981.7 540.9 984.6 544.6 984.5 541.2 C 983.1 538.1 988.7 541.7 986.1 539.0 C 984.2 536.8 983.5 536.7 985.9 537.3 C 986.3 537.9 988.8 540.1 987.6 537.3 C 986.9 537.1 986.1 536.0 986.8 535.8 C 986.8 535.8 986.8 535.8 986.8 535.8 Z M 984.7 538.7 C 983.5 537.6 985.3 538.0 984.7 538.7 C 984.7 538.7 984.7 538.7 984.7 538.7 Z M 976.6 538.3 C 975.3 537.2 977.1 537.6 976.6 538.3 C 976.6 538.3 976.6 538.3 976.6 538.3 Z M 983.6 531.6 C 982.4 531.6 984.1 529.6 983.6 531.6 C 983.6 531.6 983.6 531.6 983.6 531.6 Z M 980.0 538.9 C 979.9 538.8 980.4 538.8 980.7 538.9 C 980.6 539.0 980.1 538.9 980.0 538.9 C 980.0 538.9 980.0 538.9 980.0 538.9 Z M 981.6 529.6 C 979.0 528.7 982.6 527.9 981.6 529.6 C 981.6 529.6 981.6 529.6 981.6 529.6 Z M 976.3 527.8 C 974.3 529.3 974.9 525.5 976.3 527.8 C 976.3 527.8 976.3 527.8 976.3 527.8 Z M 974.9 534.1 C 975.6 534.1 975.0 534.7 974.9 534.1 C 974.9 534.1 974.9 534.1 974.9 534.1 Z M 982.3 542.1 C 983.0 542.0 982.4 542.6 982.3 542.1 C 982.3 542.1 982.3 542.1 982.3 542.1 Z M 972.8 531.8 C 973.6 531.3 973.2 532.8 972.8 531.8 C 972.8 531.8 972.8 531.8 972.8 531.8 Z M 982.5 532.0 C 985.6 532.2 982.4 536.0 982.5 532.0 C 982.5 532.0 982.5 532.0 982.5 532.0 Z M 985.6 534.8 C 987.0 535.6 984.5 535.5 984.2 534.7 C 984.4 534.7 985.3 534.7 985.6 534.8 C 985.6 534.8 985.6 534.8 985.6 534.8 Z M 980.7 530.5 C 982.5 530.9 981.3 531.9 980.7 530.5 C 980.7 530.5 980.7 530.5 980.7 530.5 Z M 984.3 532.5 C 984.6 533.2 983.6 532.2 984.3 532.5 C 984.3 532.5 984.3 532.5 984.3 532.5 Z M 980.0 526.8 C 980.3 527.5 979.3 526.5 980.0 526.8 C 980.0 526.8 980.0 526.8 980.0 526.8 Z M 987.7 535.4 C 988.0 536.1 987.0 535.1 987.7 535.4 C 987.7 535.4 987.7 535.4 987.7 535.4 Z M 979.5 528.2 C 978.7 528.7 978.8 531.6 977.2 527.6 C 977.2 526.7 979.3 526.9 979.5 528.2 C 979.5 528.2 979.5 528.2 979.5 528.2 Z M 905.2 455.7 C 902.1 448.6 899.8 453.3 899.0 453.8 C 897.3 454.0 897.4 455.3 897.7 456.9 C 896.6 460.2 901.6 456.3 900.2 459.2 C 898.6 463.5 904.3 458.2 901.7 461.9 C 900.7 462.5 903.3 463.8 903.4 463.4 C 902.9 465.8 906.9 464.6 907.2 464.4 C 907.4 465.4 904.7 468.3 908.8 468.2 C 911.1 469.0 909.1 472.5 910.5 470.2 C 909.6 473.4 911.9 470.3 912.4 472.2 C 912.0 474.2 914.2 470.4 913.4 474.1 C 915.8 473.0 911.6 474.6 916.7 477.2 C 915.0 475.2 920.0 477.6 918.0 478.1 C 915.4 478.0 920.3 479.4 921.3 482.0 C 922.5 481.8 926.2 482.3 924.1 483.7 C 923.8 487.6 927.2 484.3 926.3 486.7 C 926.2 488.1 927.9 486.8 928.2 487.3 C 927.6 489.2 929.0 489.0 930.9 491.6 C 935.2 497.2 934.9 489.1 937.2 490.6 C 938.1 490.3 939.5 483.3 937.5 487.6 C 938.0 486.3 930.7 485.5 936.2 484.1 C 933.3 483.9 937.9 483.0 933.2 481.6 C 935.0 488.2 927.4 477.7 932.6 480.6 C 932.7 479.2 930.8 477.7 931.5 479.5 C 929.7 482.1 929.5 475.6 928.6 479.9 C 926.7 476.6 925.0 479.7 925.9 477.2 C 928.2 473.7 925.3 478.1 924.8 476.0 C 921.8 472.8 927.4 471.9 923.4 472.3 C 921.8 467.8 921.5 472.9 920.1 472.2 C 917.8 473.9 918.5 467.6 921.1 469.6 C 918.8 469.4 921.8 468.4 919.2 468.3 C 918.4 471.2 919.4 464.6 918.3 466.5 C 916.6 465.7 916.1 467.4 915.7 467.1 C 913.8 465.3 916.2 464.0 914.5 465.0 C 913.3 465.3 914.9 462.1 914.0 462.4 C 915.8 464.4 910.5 462.8 911.3 461.6 C 912.6 462.6 913.1 458.6 910.9 459.3 C 907.8 464.3 910.3 456.6 908.1 457.2 C 906.7 460.2 903.7 453.3 906.6 454.2 C 906.3 454.2 905.2 455.7 905.2 455.7 M 913.1 462.2 C 914.5 463.9 911.0 461.0 913.1 462.2 M 913.7 461.6 C 913.6 463.0 912.8 459.5 914.0 461.4 C 914.0 461.4 913.6 461.4 913.7 461.6 M 920.2 467.9 C 919.4 468.3 919.7 466.7 920.2 467.9 M 920.0 470.5 C 920.5 472.1 918.5 469.2 920.0 470.5 M 934.7 484.3 C 929.9 486.2 935.1 480.9 934.7 484.3 M 926.0 474.2 C 923.8 472.9 928.0 473.4 926.0 474.2 M 924.6 474.5 C 923.3 474.3 925.2 473.6 924.6 474.5 M 932.0 481.6 C 932.1 481.8 932.1 481.8 932.0 481.6 C 932.0 481.6 932.0 481.6 932.0 481.6 Z M 936.1 485.9 C 936.2 485.9 936.2 485.9 936.1 485.9 C 936.1 485.9 936.1 485.9 936.1 485.9 Z M 927.6 477.8 C 927.0 475.8 930.0 479.7 927.6 477.8 C 927.6 477.8 927.6 477.8 927.6 477.8 Z M 929.0 488.9 C 928.9 488.9 928.9 488.9 929.0 488.9 C 929.0 488.9 929.0 488.9 929.0 488.9 Z M 910.4 462.5 C 910.3 462.5 910.3 462.5 910.4 462.5 C 910.4 462.5 910.4 462.5 910.4 462.5 Z M 906.9 456.4 C 906.5 457.0 906.3 455.2 906.9 456.4 C 906.9 456.4 906.9 456.4 906.9 456.4 Z M 899.2 456.4 C 899.1 456.4 899.1 456.4 899.2 456.4 C 899.2 456.4 899.2 456.4 899.2 456.4 Z M 907.0 462.6 C 906.9 462.6 906.9 462.6 907.0 462.6 C 907.0 462.6 907.0 462.6 907.0 462.6 Z M 910.2 460.9 C 911.3 458.2 911.5 463.2 910.2 460.9 C 910.2 460.9 910.2 460.9 910.2 460.9 Z M 921.3 480.8 C 922.2 480.1 922.2 482.2 921.3 480.8 C 921.3 480.8 921.3 480.8 921.3 480.8 Z M 919.5 471.4 C 920.1 471.2 920.0 472.3 919.5 471.4 C 919.5 471.4 919.5 471.4 919.5 471.4 Z M 919.3 466.3 C 919.9 466.1 919.8 467.2 919.3 466.3 C 919.3 466.3 919.3 466.3 919.3 466.3 Z M 907.4 456.0 C 907.7 456.0 907.7 456.0 907.4 456.0 C 907.4 456.0 907.4 456.0 907.4 456.0 Z M 907.8 459.1 C 908.3 456.2 908.7 461.9 907.8 459.1 C 907.8 459.1 907.8 459.1 907.8 459.1 Z M 905.2 457.6 C 905.2 458.9 904.0 455.7 905.2 457.6 M 903.8 461.4 C 906.0 462.1 899.4 463.1 903.8 461.4 C 903.8 461.4 903.8 461.4 903.8 461.4 Z M 910.5 469.5 C 910.5 469.6 910.5 469.6 910.5 469.5 C 910.5 469.5 910.5 469.5 910.5 469.5 Z M 914.7 463.7 C 916.0 465.0 913.5 463.2 914.7 463.7 C 914.7 463.7 914.7 463.7 914.7 463.7 Z M 904.0 452.1 C 905.2 453.5 902.7 451.7 904.0 452.1 C 904.0 452.1 904.0 452.1 904.0 452.1 Z M 916.5 472.1 C 918.8 473.9 914.3 471.7 916.5 472.1 C 916.5 472.1 916.5 472.1 916.5 472.1 Z M 926.2 477.8 C 926.2 477.9 926.2 477.9 926.2 477.8 C 926.2 477.8 926.2 477.8 926.2 477.8 Z M 928.3 478.5 C 928.3 478.6 928.3 478.6 928.3 478.5 C 928.3 478.5 928.3 478.5 928.3 478.5 Z M 932.5 486.2 C 932.5 486.4 932.5 486.4 932.5 486.2 C 932.5 486.2 932.5 486.2 932.5 486.2 Z M 930.4 479.0 C 930.4 479.1 930.4 479.1 930.4 479.0 C 930.4 479.0 930.4 479.0 930.4 479.0 Z M 934.1 483.6 C 934.1 483.7 934.1 483.7 934.1 483.6 C 934.1 483.6 934.1 483.6 934.1 483.6 Z M 935.0 481.5 C 935.0 481.7 935.0 481.7 935.0 481.5 C 935.0 481.5 935.0 481.5 935.0 481.5 Z M 918.3 479.8 C 918.3 480.0 918.3 480.0 918.3 479.8 C 918.3 479.8 918.3 479.8 918.3 479.8 Z M 910.3 457.7 C 910.2 458.0 910.2 458.0 910.3 457.7 C 910.3 457.7 910.3 457.7 910.3 457.7 Z M 933.1 483.9 C 933.1 484.0 933.1 484.0 933.1 483.9 C 933.1 483.9 933.1 483.9 933.1 483.9 Z M 921.7 475.2 C 920.2 476.7 922.7 472.4 922.0 475.4 C 921.9 475.4 921.8 474.9 921.7 475.2 M 920.6 479.0 C 920.5 478.9 920.5 478.9 920.6 479.0 C 920.6 479.0 920.6 479.0 920.6 479.0 Z M 915.1 475.3 C 915.0 475.3 915.0 475.3 915.1 475.3 C 915.1 475.3 915.1 475.3 915.1 475.3 Z M 930.0 478.0 C 930.6 477.0 930.5 479.7 929.8 477.8 M 930.0 488.9 C 930.6 487.9 930.5 490.6 929.8 488.7 M 902.0 451.2 C 901.2 451.7 901.5 450.0 902.0 451.2 M 913.3 475.0 C 912.5 475.5 912.8 473.8 913.3 475.0 M 917.3 475.3 C 917.9 474.3 917.8 477.1 917.1 475.2 M 926.9 485.7 C 927.0 485.7 927.0 485.7 926.9 485.7 C 926.9 485.7 926.9 485.7 926.9 485.7 Z M 916.5 465.8 C 916.6 465.9 916.6 465.9 916.5 465.8 C 916.5 465.8 916.5 465.8 916.5 465.8 Z M 920.4 473.1 C 920.7 471.2 920.6 474.8 920.4 473.1 M 912.9 466.1 C 913.2 463.6 914.2 468.3 912.9 466.1 M 932.0 491.6 C 932.5 488.7 932.0 493.4 932.0 491.6 M 930.1 481.2 C 930.5 478.3 930.1 483.1 930.1 481.2 M 916.9 467.6 C 917.7 466.7 917.7 469.4 916.9 467.6 M 905.0 454.0 C 904.0 452.7 907.3 454.9 905.0 454.0 M 923.8 482.7 C 923.8 482.8 923.8 482.8 923.8 482.7 C 923.8 482.7 923.8 482.7 923.8 482.7 Z M 902.4 464.3 C 902.4 464.4 902.4 464.4 902.4 464.3 C 902.4 464.3 902.4 464.3 902.4 464.3 Z M 939.1 487.7 C 939.1 487.8 939.1 487.8 939.1 487.7 C 939.1 487.7 939.1 487.7 939.1 487.7 Z M 928.5 481.2 C 928.5 481.4 928.5 481.4 928.5 481.2 C 928.5 481.2 928.5 481.2 928.5 481.2 Z M 937.0 485.1 C 936.9 485.2 936.9 485.2 937.0 485.1 C 937.0 485.1 937.0 485.1 937.0 485.1 Z M 923.4 478.7 C 923.4 478.8 923.4 478.8 923.4 478.7 C 923.4 478.7 923.4 478.7 923.4 478.7 Z M 926.9 473.6 C 926.9 473.7 926.9 473.7 926.9 473.6 C 926.9 473.6 926.9 473.6 926.9 473.6 Z M 920.8 471.2 C 920.8 471.3 920.8 471.3 920.8 471.2 C 920.8 471.2 920.8 471.2 920.8 471.2 Z M 928.5 475.9 C 931.3 478.2 925.8 476.0 928.5 475.9 C 928.5 475.9 928.5 475.9 928.5 475.9 Z M 919.8 475.8 C 919.8 475.9 919.8 475.9 919.8 475.8 C 919.8 475.8 919.8 475.8 919.8 475.8 Z M 922.5 472.4 C 925.3 472.8 921.3 475.3 922.5 472.4 M 916.5 464.4 C 917.6 464.2 915.7 465.6 916.5 464.4 M 908.0 467.2 C 907.9 467.2 907.9 467.2 908.0 467.2 C 908.0 467.2 908.0 467.2 908.0 467.2 Z M 909.2 467.5 C 909.2 467.6 909.2 467.6 909.2 467.5 C 909.2 467.5 909.2 467.5 909.2 467.5 Z M 915.0 462.4 C 915.0 462.4 915.0 462.4 915.0 462.4 C 915.0 462.4 915.0 462.4 915.0 462.4 Z M 907.7 469.2 C 907.8 469.3 907.8 469.3 907.7 469.2 C 907.7 469.2 907.7 469.2 907.7 469.2 Z M 925.8 472.8 C 925.8 472.8 925.8 472.8 925.8 472.8 C 925.8 472.8 925.8 472.8 925.8 472.8 Z M 938.8 485.7 C 938.8 485.7 938.8 485.7 938.8 485.7 C 938.8 485.7 938.8 485.7 938.8 485.7 Z M 900.9 458.8 C 900.9 459.0 900.9 459.0 900.9 458.8 C 900.9 458.8 900.9 458.8 900.9 458.8 Z M 925.5 475.8 C 925.4 475.9 925.4 475.9 925.5 475.8 C 925.5 475.8 925.5 475.8 925.5 475.8 Z M 906.4 465.1 C 906.4 465.2 906.4 465.2 906.4 465.1 C 906.4 465.1 906.4 465.1 906.4 465.1 Z M 925.0 474.6 C 925.0 474.7 925.0 474.7 925.0 474.6 C 925.0 474.6 925.0 474.6 925.0 474.6 Z M 923.1 482.7 C 923.1 482.7 923.1 482.7 923.1 482.7 C 923.1 482.7 923.1 482.7 923.1 482.7 Z M 924.9 486.4 C 924.9 486.4 924.9 486.4 924.9 486.4 C 924.9 486.4 924.9 486.4 924.9 486.4 Z M 925.8 479.5 C 925.9 479.5 925.9 479.5 925.8 479.5 C 925.8 479.5 925.8 479.5 925.8 479.5 Z M 907.4 462.3 C 903.7 455.8 912.1 465.7 907.4 462.3 M 926.3 480.7 C 923.1 476.8 930.9 481.9 926.3 480.7 C 927.2 480.6 926.5 480.7 926.3 480.7 M 941.1 488.2 C 938.0 488.3 936.5 489.9 935.5 492.1 C 935.4 493.6 938.6 490.5 935.9 493.2 C 933.8 492.0 932.7 497.9 936.1 494.4 C 938.8 496.1 934.2 497.0 936.9 496.9 C 939.6 498.9 937.4 498.8 939.4 500.3 C 942.3 499.5 939.5 502.3 941.8 501.0 C 938.9 502.0 944.3 502.4 943.4 503.3 C 940.6 502.9 949.7 509.6 945.9 504.8 C 948.6 505.6 946.7 506.9 947.0 507.7 C 948.9 507.3 949.0 511.5 951.2 511.5 C 951.3 511.0 950.8 510.4 951.0 509.8 C 951.4 508.8 952.1 511.2 952.0 511.0 C 953.1 511.3 957.1 513.0 952.1 512.0 C 951.0 512.7 954.9 514.0 954.0 514.8 C 956.6 517.4 956.5 513.6 956.3 516.1 C 958.1 518.0 959.5 519.4 959.7 519.1 C 960.6 520.5 959.8 521.8 961.9 521.8 C 962.1 526.1 967.4 519.5 964.3 524.4 C 965.9 524.1 963.9 527.3 966.3 524.8 C 964.4 525.1 968.3 530.6 968.1 526.8 C 969.2 526.7 969.0 532.8 971.1 529.9 C 974.0 529.1 975.6 527.1 975.1 523.0 C 973.9 524.7 974.1 519.1 973.4 523.3 C 974.6 526.1 968.9 520.5 971.0 520.8 C 974.2 518.2 966.4 519.9 967.3 516.6 C 967.1 518.8 962.0 514.8 965.5 513.9 C 964.8 512.9 963.6 513.7 963.9 511.5 C 966.5 514.5 960.6 512.8 962.1 511.6 C 963.4 511.2 960.0 506.5 959.2 508.2 C 957.5 512.6 958.7 506.5 956.8 507.0 C 953.9 505.4 959.8 504.7 955.9 505.3 C 955.8 504.5 952.8 501.4 955.3 502.7 C 955.7 503.7 950.2 504.3 952.5 501.4 C 957.1 503.1 949.6 496.9 949.9 498.8 C 953.4 505.1 943.1 495.1 948.3 497.6 C 947.6 494.0 949.5 497.7 946.2 495.6 C 945.8 496.7 942.9 495.4 945.0 494.3 C 947.0 491.4 941.0 496.8 942.7 491.8 C 943.9 490.1 938.3 489.6 941.1 489.1 C 941.3 489.0 941.2 488.3 941.1 488.2 M 941.8 489.5 C 940.9 489.7 941.9 488.2 941.8 489.5 M 940.8 489.6 C 940.8 489.6 940.8 489.6 940.8 489.6 C 940.8 489.6 940.8 489.6 940.8 489.6 Z M 945.7 495.3 C 945.8 495.1 945.8 495.1 945.7 495.3 C 945.7 495.3 945.7 495.3 945.7 495.3 Z M 943.7 505.6 C 943.8 505.5 943.8 505.5 943.7 505.6 C 943.7 505.6 943.7 505.6 943.7 505.6 Z M 949.1 498.9 C 949.1 498.9 949.1 498.9 949.1 498.9 C 949.1 498.9 949.1 498.9 949.1 498.9 Z M 943.5 493.8 C 943.4 493.7 943.4 493.7 943.5 493.8 C 943.5 493.8 943.5 493.8 943.5 493.8 Z M 949.7 497.7 C 949.0 498.9 949.1 495.8 949.9 497.6 C 949.9 497.7 949.6 497.5 949.7 497.7 M 954.6 501.9 C 954.5 502.0 954.5 502.0 954.6 501.9 M 957.5 519.2 C 957.4 519.3 957.4 519.3 957.5 519.2 M 965.6 512.7 C 965.6 513.0 965.6 513.0 965.6 512.7 M 958.2 507.4 C 959.7 508.7 958.1 508.2 958.2 507.4 M 968.7 516.9 C 967.6 514.6 971.1 518.3 968.7 516.9 M 971.0 518.1 C 971.1 518.3 971.1 518.3 971.0 518.1 M 962.7 510.5 C 962.6 510.6 962.6 510.6 962.7 510.5 C 962.7 510.5 962.7 510.5 962.7 510.5 Z M 958.0 506.4 C 956.7 504.1 960.7 507.4 958.0 506.4 M 947.2 495.0 C 948.7 495.5 946.0 496.2 947.2 495.0 M 944.6 493.4 C 944.6 493.5 944.6 493.5 944.6 493.4 C 944.6 493.4 944.6 493.4 944.6 493.4 Z M 966.0 514.1 C 965.9 514.0 965.9 514.0 966.0 514.1 C 966.0 514.1 966.0 514.1 966.0 514.1 Z M 968.2 515.9 C 968.1 515.9 968.1 515.9 968.2 515.9 C 968.2 515.9 968.2 515.9 968.2 515.9 Z M 964.8 526.1 C 964.7 526.0 964.7 526.0 964.8 526.1 C 964.8 526.1 964.8 526.1 964.8 526.1 Z M 943.4 497.8 C 942.5 496.0 947.0 497.0 945.0 498.3 C 944.5 499.2 943.7 497.8 943.4 497.8 M 954.6 507.1 C 952.7 509.8 956.4 502.7 954.6 507.1 M 969.7 519.9 C 968.4 524.0 970.0 516.2 969.7 519.9 M 973.0 522.2 C 973.2 523.5 967.5 517.3 972.4 520.8 C 973.3 520.7 973.0 521.6 973.0 522.2 M 953.6 503.1 C 952.7 504.7 951.9 500.3 953.6 503.1 M 958.2 515.3 C 959.6 515.1 962.1 516.2 959.9 516.8 C 958.1 518.6 956.7 515.2 958.2 515.3 M 940.9 491.2 C 944.0 490.3 939.1 492.9 940.9 491.2 M 946.0 496.7 C 946.1 496.6 946.1 496.6 946.0 496.7 C 946.0 496.7 946.0 496.7 946.0 496.7 Z M 948.5 498.5 C 948.4 498.7 948.4 498.7 948.5 498.5 M 943.5 490.3 C 943.5 490.5 943.5 490.5 943.5 490.3 M 960.2 513.1 C 960.2 513.4 960.2 513.4 960.2 513.1 M 957.3 507.5 C 957.3 511.6 955.8 506.8 957.3 507.5 M 948.4 506.4 C 948.1 508.0 947.0 505.2 948.4 506.4 M 961.4 510.1 C 961.0 513.5 957.6 509.9 961.4 510.1 M 956.5 506.3 C 956.6 506.4 956.6 506.4 956.5 506.3 C 956.5 506.3 956.5 506.3 956.5 506.3 Z M 958.5 516.1 C 958.4 516.0 958.4 516.0 958.5 516.1 C 958.5 516.1 958.5 516.1 958.5 516.1 Z M 959.2 516.6 C 959.1 516.6 959.1 516.6 959.2 516.6 C 959.2 516.6 959.2 516.6 959.2 516.6 Z M 963.4 511.7 C 963.3 511.7 963.3 511.7 963.4 511.7 C 963.4 511.7 963.4 511.7 963.4 511.7 Z M 939.2 498.6 C 940.5 500.2 937.8 497.7 939.2 498.6 C 939.2 498.6 939.2 498.6 939.2 498.6 Z M 951.3 499.4 C 952.2 503.3 948.2 499.1 951.3 499.4 C 951.3 499.4 951.3 499.4 951.3 499.4 Z M 951.5 504.6 C 951.4 504.7 951.4 504.7 951.5 504.6 C 951.5 504.6 951.5 504.6 951.5 504.6 Z M 961.7 508.0 C 961.6 508.1 961.6 508.1 961.7 508.0 C 961.7 508.0 961.7 508.0 961.7 508.0 Z M 939.7 499.6 C 939.6 499.7 939.6 499.7 939.7 499.6 C 939.7 499.6 939.7 499.6 939.7 499.6 Z M 966.5 516.8 C 966.4 516.9 966.4 516.9 966.5 516.8 C 966.5 516.8 966.5 516.8 966.5 516.8 Z M 954.2 512.4 C 955.5 512.2 953.8 513.1 954.2 512.4 C 954.2 512.4 954.2 512.4 954.2 512.4 Z M 956.4 514.6 C 956.5 514.7 956.5 514.7 956.4 514.6 C 956.4 514.6 956.4 514.6 956.4 514.6 Z M 971.7 518.5 C 971.8 518.5 971.8 518.5 971.7 518.5 C 971.7 518.5 971.7 518.5 971.7 518.5 Z M 960.1 521.9 C 960.2 522.0 960.2 522.0 960.1 521.9 C 960.1 521.9 960.1 521.9 960.1 521.9 Z M 964.2 521.5 C 964.1 521.5 964.1 521.5 964.2 521.5 C 964.2 521.5 964.2 521.5 964.2 521.5 Z M 962.6 511.7 C 965.1 513.6 961.2 512.1 962.6 511.7 C 962.6 511.7 962.6 511.7 962.6 511.7 Z M 970.2 526.3 C 970.1 526.5 970.1 526.5 970.2 526.3 C 970.2 526.3 970.2 526.3 970.2 526.3 Z M 973.9 524.8 C 973.8 524.9 973.8 524.9 973.9 524.8 C 973.9 524.8 973.9 524.8 973.9 524.8 Z M 975.8 523.9 C 975.8 524.1 975.8 524.1 975.8 523.9 C 975.8 523.9 975.8 523.9 975.8 523.9 Z M 945.6 501.2 C 945.6 501.1 945.6 501.1 945.6 501.2 C 945.6 501.2 945.6 501.2 945.6 501.2 Z M 949.0 496.1 C 949.0 496.1 949.0 496.1 949.0 496.1 C 949.0 496.1 949.0 496.1 949.0 496.1 Z M 952.1 498.9 C 952.2 498.8 952.2 498.8 952.1 498.9 C 952.1 498.9 952.1 498.9 952.1 498.9 Z M 942.5 503.3 C 942.5 503.2 942.5 503.2 942.5 503.3 C 942.5 503.3 942.5 503.3 942.5 503.3 Z M 957.1 510.7 C 957.2 510.6 957.2 510.6 957.1 510.7 C 957.1 510.7 957.1 510.7 957.1 510.7 Z M 956.5 513.5 C 956.5 513.3 956.5 513.3 956.5 513.5 C 956.5 513.5 956.5 513.5 956.5 513.5 Z M 951.6 513.2 C 951.6 513.1 951.6 513.1 951.6 513.2 C 951.6 513.2 951.6 513.2 951.6 513.2 Z M 955.8 515.7 C 955.8 515.7 955.8 515.7 955.8 515.7 C 955.8 515.7 955.8 515.7 955.8 515.7 Z M 935.9 495.1 C 935.9 495.2 935.9 495.2 935.9 495.1 C 935.9 495.1 935.9 495.1 935.9 495.1 Z M 938.9 491.6 C 938.8 491.7 938.8 491.7 938.9 491.6 C 938.9 491.6 938.9 491.6 938.9 491.6 Z M 959.8 508.7 C 961.0 508.5 959.9 510.6 959.8 508.7 M 955.2 504.9 C 955.2 504.9 955.2 504.9 955.2 504.9 C 955.2 504.9 955.2 504.9 955.2 504.9 Z M 966.8 515.9 C 966.0 517.7 965.5 513.2 966.8 515.9 C 966.8 515.9 966.8 515.9 966.8 515.9 Z M 959.1 519.1 C 959.1 519.1 959.1 519.1 959.1 519.1 C 959.1 519.1 959.1 519.1 959.1 519.1 Z M 960.8 519.6 C 960.7 519.8 960.7 519.8 960.8 519.6 C 960.8 519.6 960.8 519.6 960.8 519.6 Z M 970.4 522.2 C 970.3 522.4 970.3 522.4 970.4 522.2 M 955.9 503.2 C 955.9 504.4 955.9 504.2 955.9 503.2 M 968.1 517.3 C 968.1 517.3 968.1 517.3 968.1 517.3 C 968.1 517.3 968.1 517.3 968.1 517.3 Z M 972.4 522.8 C 972.3 522.8 972.3 522.8 972.4 522.8 C 972.4 522.8 972.4 522.8 972.4 522.8 Z M 952.0 501.1 C 950.5 502.8 950.3 501.8 952.0 501.1 M 943.1 493.2 C 943.0 493.4 943.0 493.4 943.1 493.2 C 943.1 493.2 943.1 493.2 943.1 493.2 Z M 943.1 493.2 " fill="#E42731"></path></g></g></g></svg>