<?xml version="1.0" encoding="UTF-8" standalone="no"?><svg xmlns="http://www.w3.org/2000/svg" xmlns:xlink="http://www.w3.org/1999/xlink" clip-rule="evenodd" stroke-miterlimit="4.00" viewBox="0 0 257 53"><desc>SVG generated by Keynote</desc><defs></defs><g transform="matrix(1.00, 0.00, -0.00, -1.00, 0.0, 53.0)"><path d="M 1.5 51.5 L 255.6 51.5 L 255.6 1.8 L 1.5 1.8 Z M 1.5 51.5 " fill="#FDCA55"></path><g><clipPath id="clip-556"><path d="M -2.4 -9.6 L 259.4 -9.6 L 259.4 55.4 L -2.4 55.4 Z M -2.4 -9.6 "></path></clipPath><g clip-path="url(#clip-556)"><text xml:space="preserve" font-family="DINCondensed-Bold" font-weight="bold" font-size="38.0" fill="#222222" transform="matrix(1.00, 0.00, -0.00, -1.00, 29.0, 18.0)">B</text><text xml:space="preserve" font-family="DINCondensed-Bold" font-weight="bold" font-size="38.0" fill="#222222" transform="matrix(1.00, 0.00, -0.00, -1.00, 45.2, 18.0)">U</text><text xml:space="preserve" font-family="DINCondensed-Bold" font-weight="bold" font-size="38.0" fill="#222222" transform="matrix(1.00, 0.00, -0.00, -1.00, 61.4, 18.0)">S</text><text xml:space="preserve" font-family="DINCondensed-Bold" font-weight="bold" font-size="38.0" fill="#222222" transform="matrix(1.00, 0.00, -0.00, -1.00, 76.8, 18.0)">I</text><text xml:space="preserve" font-family="DINCondensed-Bold" font-weight="bold" font-size="38.0" fill="#222222" transform="matrix(1.00, 0.00, -0.00, -1.00, 84.6, 18.0)">N</text><text xml:space="preserve" font-family="DINCondensed-Bold" font-weight="bold" font-size="38.0" fill="#222222" transform="matrix(1.00, 0.00, -0.00, -1.00, 101.4, 18.0)">E</text><text xml:space="preserve" font-family="DINCondensed-Bold" font-weight="bold" font-size="38.0" fill="#222222" transform="matrix(1.00, 0.00, -0.00, -1.00, 115.5, 18.0)">S</text><text xml:space="preserve" font-family="DINCondensed-Bold" font-weight="bold" font-size="38.0" fill="#222222" transform="matrix(1.00, 0.00, -0.00, -1.00, 130.9, 18.0)">S</text><text xml:space="preserve" font-family="DINCondensed-Bold" font-weight="bold" font-size="38.0" fill="#222222" transform="matrix(1.00, 0.00, -0.00, -1.00, 146.3, 18.0)"> </text><text xml:space="preserve" font-family="DINCondensed-Bold" font-weight="bold" font-size="38.0" fill="#222222" transform="matrix(1.00, 0.00, -0.00, -1.00, 153.4, 18.0)">V</text><text xml:space="preserve" font-family="DINCondensed-Bold" font-weight="bold" font-size="38.0" fill="#222222" transform="matrix(1.00, 0.00, -0.00, -1.00, 167.5, 18.0)">A</text><text xml:space="preserve" font-family="DINCondensed-Bold" font-weight="bold" font-size="38.0" fill="#222222" transform="matrix(1.00, 0.00, -0.00, -1.00, 182.9, 18.0)">L</text><text xml:space="preserve" font-family="DINCondensed-Bold" font-weight="bold" font-size="38.0" fill="#222222" transform="matrix(1.00, 0.00, -0.00, -1.00, 197.0, 18.0)">U</text><text xml:space="preserve" font-family="DINCondensed-Bold" font-weight="bold" font-size="38.0" fill="#222222" transform="matrix(1.00, 0.00, -0.00, -1.00, 213.2, 18.0)">E</text></g></g></g></svg>