<?xml version="1.0" encoding="UTF-8" standalone="no"?><svg xmlns="http://www.w3.org/2000/svg" xmlns:xlink="http://www.w3.org/1999/xlink" clip-rule="evenodd" stroke-miterlimit="4.00" viewBox="0 0 635 598"><desc>SVG generated by Keynote</desc><defs></defs><g transform="matrix(1.00, 0.00, -0.00, -1.00, 0.0, 598.0)"><g><clipPath id="clip-638"><path d="M 3.1 508.4 L 259.2 508.4 L 259.2 560.1 L 3.1 560.1 Z M 3.1 508.4 "></path></clipPath><g clip-path="url(#clip-638)"><path d="M 4.1 559.1 L 258.2 559.1 L 258.2 509.4 L 4.1 509.4 Z M 4.1 559.1 " fill="#34A4DA"></path></g></g><g><clipPath id="clip-639"><path d="M 0.3 497.9 L 262.1 497.9 L 262.1 562.9 L 0.3 562.9 Z M 0.3 497.9 "></path></clipPath><g clip-path="url(#clip-639)"><text xml:space="preserve" font-family="DINCondensed-Bold" font-weight="bold" font-size="38.0" fill="#FFFFFF" transform="matrix(1.00, 0.00, -0.00, -1.00, 68.0, 526.0)">S</text><text xml:space="preserve" font-family="DINCondensed-Bold" font-weight="bold" font-size="38.0" fill="#FFFFFF" transform="matrix(1.00, 0.00, -0.00, -1.00, 83.4, 526.0)">O</text><text xml:space="preserve" font-family="DINCondensed-Bold" font-weight="bold" font-size="38.0" fill="#FFFFFF" transform="matrix(1.00, 0.00, -0.00, -1.00, 99.6, 526.0)">F</text><text xml:space="preserve" font-family="DINCondensed-Bold" font-weight="bold" font-size="38.0" fill="#FFFFFF" transform="matrix(1.00, 0.00, -0.00, -1.00, 113.7, 526.0)">T</text><text xml:space="preserve" font-family="DINCondensed-Bold" font-weight="bold" font-size="38.0" fill="#FFFFFF" transform="matrix(1.00, 0.00, -0.00, -1.00, 126.3, 526.0)">W</text><text xml:space="preserve" font-family="DINCondensed-Bold" font-weight="bold" font-size="38.0" fill="#FFFFFF" transform="matrix(1.00, 0.00, -0.00, -1.00, 147.7, 526.0)">A</text><text xml:space="preserve" font-family="DINCondensed-Bold" font-weight="bold" font-size="38.0" fill="#FFFFFF" transform="matrix(1.00, 0.00, -0.00, -1.00, 163.2, 526.0)">R</text><text xml:space="preserve" font-family="DINCondensed-Bold" font-weight="bold" font-size="38.0" fill="#FFFFFF" transform="matrix(1.00, 0.00, -0.00, -1.00, 179.3, 526.0)">E</text></g></g><g><clipPath id="clip-640"><path d="M 218.5 400.1 L 414.8 400.1 L 414.8 624.1 L 218.5 624.1 Z M 218.5 400.1 "></path></clipPath><g clip-path="url(#clip-640)"><text xml:space="preserve" font-family="DINCondensed-Bold" font-weight="bold" font-size="132.0" fill="#FFFFFF" transform="matrix(1.00, 0.00, -0.00, -1.00, 251.0, 498.0)"> </text><text xml:space="preserve" font-family="DINCondensed-Bold" font-weight="bold" font-size="132.0" fill="#FFFFFF" transform="matrix(1.00, 0.00, -0.00, -1.00, 275.6, 498.0)">=</text><text xml:space="preserve" font-family="DINCondensed-Bold" font-weight="bold" font-size="132.0" fill="#FFFFFF" transform="matrix(1.00, 0.00, -0.00, -1.00, 354.8, 498.0)"> </text></g></g><g><clipPath id="clip-641"><path d="M 378.5 508.4 L 634.6 508.4 L 634.6 560.1 L 378.5 560.1 Z M 378.5 508.4 "></path></clipPath><g clip-path="url(#clip-641)"><path d="M 379.5 559.1 L 633.6 559.1 L 633.6 509.4 L 379.5 509.4 Z M 379.5 559.1 " fill="#FDCA55"></path></g></g><g><clipPath id="clip-642"><path d="M 375.6 497.9 L 637.5 497.9 L 637.5 562.9 L 375.6 562.9 Z M 375.6 497.9 "></path></clipPath><g clip-path="url(#clip-642)"><text xml:space="preserve" font-family="DINCondensed-Bold" font-weight="bold" font-size="38.0" fill="#222222" transform="matrix(1.00, 0.00, -0.00, -1.00, 407.0, 526.0)">B</text><text xml:space="preserve" font-family="DINCondensed-Bold" font-weight="bold" font-size="38.0" fill="#222222" transform="matrix(1.00, 0.00, -0.00, -1.00, 423.2, 526.0)">U</text><text xml:space="preserve" font-family="DINCondensed-Bold" font-weight="bold" font-size="38.0" fill="#222222" transform="matrix(1.00, 0.00, -0.00, -1.00, 439.4, 526.0)">S</text><text xml:space="preserve" font-family="DINCondensed-Bold" font-weight="bold" font-size="38.0" fill="#222222" transform="matrix(1.00, 0.00, -0.00, -1.00, 454.8, 526.0)">I</text><text xml:space="preserve" font-family="DINCondensed-Bold" font-weight="bold" font-size="38.0" fill="#222222" transform="matrix(1.00, 0.00, -0.00, -1.00, 462.6, 526.0)">N</text><text xml:space="preserve" font-family="DINCondensed-Bold" font-weight="bold" font-size="38.0" fill="#222222" transform="matrix(1.00, 0.00, -0.00, -1.00, 479.4, 526.0)">E</text><text xml:space="preserve" font-family="DINCondensed-Bold" font-weight="bold" font-size="38.0" fill="#222222" transform="matrix(1.00, 0.00, -0.00, -1.00, 493.5, 526.0)">S</text><text xml:space="preserve" font-family="DINCondensed-Bold" font-weight="bold" font-size="38.0" fill="#222222" transform="matrix(1.00, 0.00, -0.00, -1.00, 508.9, 526.0)">S</text><text xml:space="preserve" font-family="DINCondensed-Bold" font-weight="bold" font-size="38.0" fill="#222222" transform="matrix(1.00, 0.00, -0.00, -1.00, 524.3, 526.0)"> </text><text xml:space="preserve" font-family="DINCondensed-Bold" font-weight="bold" font-size="38.0" fill="#222222" transform="matrix(1.00, 0.00, -0.00, -1.00, 531.4, 526.0)">V</text><text xml:space="preserve" font-family="DINCondensed-Bold" font-weight="bold" font-size="38.0" fill="#222222" transform="matrix(1.00, 0.00, -0.00, -1.00, 545.5, 526.0)">A</text><text xml:space="preserve" font-family="DINCondensed-Bold" font-weight="bold" font-size="38.0" fill="#222222" transform="matrix(1.00, 0.00, -0.00, -1.00, 560.9, 526.0)">L</text><text xml:space="preserve" font-family="DINCondensed-Bold" font-weight="bold" font-size="38.0" fill="#222222" transform="matrix(1.00, 0.00, -0.00, -1.00, 575.0, 526.0)">U</text><text xml:space="preserve" font-family="DINCondensed-Bold" font-weight="bold" font-size="38.0" fill="#222222" transform="matrix(1.00, 0.00, -0.00, -1.00, 591.2, 526.0)">E</text></g></g><g><clipPath id="clip-643"><path d="M 0.4 56.4 L 256.5 56.4 L 256.5 108.1 L 0.4 108.1 Z M 0.4 56.4 "></path></clipPath><g clip-path="url(#clip-643)"><path d="M 1.4 107.1 L 255.5 107.1 L 255.5 57.4 L 1.4 57.4 Z M 1.4 107.1 " fill="#34A4DA"></path></g></g><g><clipPath id="clip-644"><path d="M -2.5 45.9 L 259.4 45.9 L 259.4 110.9 L -2.5 110.9 Z M -2.5 45.9 "></path></clipPath><g clip-path="url(#clip-644)"><text xml:space="preserve" font-family="DINCondensed-Bold" font-weight="bold" font-size="38.0" fill="#FFFFFF" transform="matrix(1.00, 0.00, -0.00, -1.00, 26.0, 74.0)">I</text><text xml:space="preserve" font-family="DINCondensed-Bold" font-weight="bold" font-size="38.0" fill="#FFFFFF" transform="matrix(1.00, 0.00, -0.00, -1.00, 33.8, 74.0)">N</text><text xml:space="preserve" font-family="DINCondensed-Bold" font-weight="bold" font-size="38.0" fill="#FFFFFF" transform="matrix(1.00, 0.00, -0.00, -1.00, 50.6, 74.0)">F</text><text xml:space="preserve" font-family="DINCondensed-Bold" font-weight="bold" font-size="38.0" fill="#FFFFFF" transform="matrix(1.00, 0.00, -0.00, -1.00, 64.7, 74.0)">R</text><text xml:space="preserve" font-family="DINCondensed-Bold" font-weight="bold" font-size="38.0" fill="#FFFFFF" transform="matrix(1.00, 0.00, -0.00, -1.00, 80.9, 74.0)">A</text><text xml:space="preserve" font-family="DINCondensed-Bold" font-weight="bold" font-size="38.0" fill="#FFFFFF" transform="matrix(1.00, 0.00, -0.00, -1.00, 96.3, 74.0)">S</text><text xml:space="preserve" font-family="DINCondensed-Bold" font-weight="bold" font-size="38.0" fill="#FFFFFF" transform="matrix(1.00, 0.00, -0.00, -1.00, 111.8, 74.0)">T</text><text xml:space="preserve" font-family="DINCondensed-Bold" font-weight="bold" font-size="38.0" fill="#FFFFFF" transform="matrix(1.00, 0.00, -0.00, -1.00, 124.4, 74.0)">R</text><text xml:space="preserve" font-family="DINCondensed-Bold" font-weight="bold" font-size="38.0" fill="#FFFFFF" transform="matrix(1.00, 0.00, -0.00, -1.00, 140.6, 74.0)">U</text><text xml:space="preserve" font-family="DINCondensed-Bold" font-weight="bold" font-size="38.0" fill="#FFFFFF" transform="matrix(1.00, 0.00, -0.00, -1.00, 156.8, 74.0)">C</text><text xml:space="preserve" font-family="DINCondensed-Bold" font-weight="bold" font-size="38.0" fill="#FFFFFF" transform="matrix(1.00, 0.00, -0.00, -1.00, 172.2, 74.0)">T</text><text xml:space="preserve" font-family="DINCondensed-Bold" font-weight="bold" font-size="38.0" fill="#FFFFFF" transform="matrix(1.00, 0.00, -0.00, -1.00, 184.8, 74.0)">U</text><text xml:space="preserve" font-family="DINCondensed-Bold" font-weight="bold" font-size="38.0" fill="#FFFFFF" transform="matrix(1.00, 0.00, -0.00, -1.00, 201.0, 74.0)">R</text><text xml:space="preserve" font-family="DINCondensed-Bold" font-weight="bold" font-size="38.0" fill="#FFFFFF" transform="matrix(1.00, 0.00, -0.00, -1.00, 217.2, 74.0)">E</text></g></g><g><clipPath id="clip-645"><path d="M 215.8 -51.9 L 412.1 -51.9 L 412.1 172.1 L 215.8 172.1 Z M 215.8 -51.9 "></path></clipPath><g clip-path="url(#clip-645)"><text xml:space="preserve" font-family="DINCondensed-Bold" font-weight="bold" font-size="132.0" fill="#FFFFFF" transform="matrix(1.00, 0.00, -0.00, -1.00, 249.0, 46.0)"> </text><text xml:space="preserve" font-family="DINCondensed-Bold" font-weight="bold" font-size="132.0" fill="#FFFFFF" transform="matrix(1.00, 0.00, -0.00, -1.00, 273.6, 46.0)">=</text><text xml:space="preserve" font-family="DINCondensed-Bold" font-weight="bold" font-size="132.0" fill="#FFFFFF" transform="matrix(1.00, 0.00, -0.00, -1.00, 352.8, 46.0)"> </text></g></g><g><clipPath id="clip-646"><path d="M 375.8 56.4 L 631.9 56.4 L 631.9 108.1 L 375.8 108.1 Z M 375.8 56.4 "></path></clipPath><g clip-path="url(#clip-646)"><path d="M 376.8 107.1 L 630.9 107.1 L 630.9 57.4 L 376.8 57.4 Z M 376.8 107.1 " fill="#FDCA55"></path></g></g><g><clipPath id="clip-647"><path d="M 372.9 45.9 L 634.7 45.9 L 634.7 110.9 L 372.9 110.9 Z M 372.9 45.9 "></path></clipPath><g clip-path="url(#clip-647)"><text xml:space="preserve" font-family="DINCondensed-Bold" font-weight="bold" font-size="38.0" fill="#222222" transform="matrix(1.00, 0.00, -0.00, -1.00, 405.0, 74.0)">B</text><text xml:space="preserve" font-family="DINCondensed-Bold" font-weight="bold" font-size="38.0" fill="#222222" transform="matrix(1.00, 0.00, -0.00, -1.00, 421.2, 74.0)">U</text><text xml:space="preserve" font-family="DINCondensed-Bold" font-weight="bold" font-size="38.0" fill="#222222" transform="matrix(1.00, 0.00, -0.00, -1.00, 437.4, 74.0)">S</text><text xml:space="preserve" font-family="DINCondensed-Bold" font-weight="bold" font-size="38.0" fill="#222222" transform="matrix(1.00, 0.00, -0.00, -1.00, 452.8, 74.0)">I</text><text xml:space="preserve" font-family="DINCondensed-Bold" font-weight="bold" font-size="38.0" fill="#222222" transform="matrix(1.00, 0.00, -0.00, -1.00, 460.6, 74.0)">N</text><text xml:space="preserve" font-family="DINCondensed-Bold" font-weight="bold" font-size="38.0" fill="#222222" transform="matrix(1.00, 0.00, -0.00, -1.00, 477.4, 74.0)">E</text><text xml:space="preserve" font-family="DINCondensed-Bold" font-weight="bold" font-size="38.0" fill="#222222" transform="matrix(1.00, 0.00, -0.00, -1.00, 491.5, 74.0)">S</text><text xml:space="preserve" font-family="DINCondensed-Bold" font-weight="bold" font-size="38.0" fill="#222222" transform="matrix(1.00, 0.00, -0.00, -1.00, 506.9, 74.0)">S</text><text xml:space="preserve" font-family="DINCondensed-Bold" font-weight="bold" font-size="38.0" fill="#222222" transform="matrix(1.00, 0.00, -0.00, -1.00, 522.3, 74.0)"> </text><text xml:space="preserve" font-family="DINCondensed-Bold" font-weight="bold" font-size="38.0" fill="#222222" transform="matrix(1.00, 0.00, -0.00, -1.00, 529.4, 74.0)">V</text><text xml:space="preserve" font-family="DINCondensed-Bold" font-weight="bold" font-size="38.0" fill="#222222" transform="matrix(1.00, 0.00, -0.00, -1.00, 543.5, 74.0)">A</text><text xml:space="preserve" font-family="DINCondensed-Bold" font-weight="bold" font-size="38.0" fill="#222222" transform="matrix(1.00, 0.00, -0.00, -1.00, 558.9, 74.0)">L</text><text xml:space="preserve" font-family="DINCondensed-Bold" font-weight="bold" font-size="38.0" fill="#222222" transform="matrix(1.00, 0.00, -0.00, -1.00, 573.0, 74.0)">U</text><text xml:space="preserve" font-family="DINCondensed-Bold" font-weight="bold" font-size="38.0" fill="#222222" transform="matrix(1.00, 0.00, -0.00, -1.00, 589.2, 74.0)">E</text></g></g><g><clipPath id="clip-648"><path d="M 254.2 32.2 L 363.4 141.4 L 372.6 132.2 L 263.4 23.0 Z M 254.2 32.2 "></path></clipPath><g clip-path="url(#clip-648)"><path d="M 278.9 43.8 C 278.3 43.7 277.7 42.4 277.2 42.4 M 278.9 43.8 C 279.4 41.5 277.8 39.7 275.7 37.1 C 273.3 34.6 274.5 38.5 273.6 38.8 C 269.8 36.2 270.9 35.1 272.9 34.1 C 270.6 33.9 268.7 28.3 267.6 31.0 C 272.8 36.2 263.5 27.8 266.7 33.3 C 266.9 34.1 265.1 33.3 264.6 32.8 C 265.3 35.1 261.9 33.5 263.6 36.4 C 262.7 37.9 262.8 37.0 263.4 39.4 C 263.9 40.2 264.0 39.5 264.2 39.2 C 265.9 38.0 265.2 41.7 267.3 42.1 C 266.6 45.0 269.9 44.0 269.7 42.2 C 270.6 43.6 269.9 46.8 272.4 46.6 C 272.1 48.1 275.7 50.4 275.1 47.5 C 274.5 45.5 276.5 46.4 277.1 46.1 C 277.1 45.3 274.7 44.1 274.8 43.5 C 275.6 43.7 278.6 45.3 276.1 42.9 C 277.5 43.1 276.7 41.5 278.9 43.8 C 278.9 43.8 278.9 43.8 278.9 43.8 Z M 271.1 34.0 C 271.6 33.5 271.9 34.8 271.1 34.0 C 271.1 34.0 271.1 34.0 271.1 34.0 Z M 270.5 46.6 C 271.0 46.1 271.3 47.4 270.5 46.6 C 270.5 46.6 270.5 46.6 270.5 46.6 Z M 264.6 39.6 C 265.1 39.1 265.4 40.5 264.6 39.6 C 264.6 39.6 264.6 39.6 264.6 39.6 Z M 273.1 36.6 C 274.1 38.4 271.2 36.1 271.5 35.5 C 271.7 35.8 273.2 35.8 273.1 36.6 C 273.1 36.6 273.1 36.6 273.1 36.6 Z M 270.4 39.6 C 270.7 39.6 271.4 40.1 270.8 40.5 C 270.3 40.3 270.2 39.7 270.4 39.6 C 270.4 39.6 270.4 39.6 270.4 39.6 Z M 265.6 30.7 C 265.9 30.7 266.5 31.2 266.0 31.6 C 265.5 31.4 265.3 30.8 265.6 30.7 C 265.6 30.7 265.6 30.7 265.6 30.7 Z M 273.4 39.5 C 273.6 39.9 273.3 40.5 272.8 40.1 C 272.9 39.7 272.0 38.7 273.4 39.5 C 273.4 39.5 273.4 39.5 273.4 39.5 Z M 277.2 40.0 C 278.1 41.4 275.0 39.8 275.3 39.6 C 275.2 38.9 276.9 39.0 277.2 40.0 C 277.2 40.0 277.2 40.0 277.2 40.0 Z M 273.4 40.8 C 274.1 42.0 272.6 40.8 273.4 40.8 C 273.4 40.8 273.4 40.8 273.4 40.8 Z M 262.9 35.3 C 263.6 36.5 262.1 35.3 262.9 35.3 C 262.9 35.3 262.9 35.3 262.9 35.3 Z M 266.4 41.9 C 267.1 43.1 265.7 41.9 266.4 41.9 C 266.4 41.9 266.4 41.9 266.4 41.9 Z M 269.6 35.0 C 267.9 33.3 270.6 33.5 269.6 35.0 C 269.6 35.0 269.6 35.0 269.6 35.0 Z M 280.0 42.5 C 278.3 40.8 281.0 41.1 280.0 42.5 C 280.0 42.5 280.0 42.5 280.0 42.5 Z M 363.8 127.3 C 365.6 128.6 361.3 121.0 361.6 125.2 C 360.7 127.5 356.8 123.3 359.3 122.8 C 358.3 121.4 358.3 121.3 356.9 121.4 C 357.9 120.1 355.7 116.6 354.1 116.3 C 352.5 116.7 355.8 118.3 353.2 117.8 C 349.3 114.5 352.3 119.1 349.6 119.1 C 349.5 118.9 350.1 118.2 349.4 118.2 C 348.0 119.4 349.2 122.2 347.4 122.2 C 348.1 122.6 349.3 126.5 349.3 124.3 C 350.1 122.8 350.7 128.5 352.3 126.4 C 352.3 128.1 354.4 127.8 354.1 129.6 C 354.6 130.5 355.5 129.5 355.7 129.1 C 356.5 128.2 354.5 131.9 357.0 131.3 C 356.7 131.9 359.7 134.5 358.3 131.7 C 358.7 132.5 361.6 136.1 361.6 132.7 C 360.1 129.7 365.7 133.3 363.1 130.5 C 361.2 128.3 360.5 128.2 362.9 128.9 C 363.3 129.4 365.8 131.6 364.6 128.9 C 363.9 128.6 363.1 127.5 363.8 127.3 C 363.8 127.3 363.8 127.3 363.8 127.3 Z M 361.7 130.3 C 360.5 129.2 362.3 129.5 361.7 130.3 C 361.7 130.3 361.7 130.3 361.7 130.3 Z M 353.6 129.9 C 352.3 128.8 354.1 129.1 353.6 129.9 C 353.6 129.9 353.6 129.9 353.6 129.9 Z M 360.6 123.2 C 359.4 123.1 361.1 121.2 360.6 123.2 C 360.6 123.2 360.6 123.2 360.6 123.2 Z M 357.0 130.4 C 356.9 130.3 357.4 130.4 357.7 130.5 C 357.6 130.6 357.1 130.5 357.0 130.4 C 357.0 130.4 357.0 130.4 357.0 130.4 Z M 358.6 121.2 C 356.0 120.3 359.6 119.4 358.6 121.2 C 358.6 121.2 358.6 121.2 358.6 121.2 Z M 353.3 119.3 C 351.3 120.9 351.9 117.1 353.3 119.3 C 353.3 119.3 353.3 119.3 353.3 119.3 Z M 351.9 125.7 C 352.6 125.6 352.0 126.2 351.9 125.7 C 351.9 125.7 351.9 125.7 351.9 125.7 Z M 359.3 133.6 C 360.0 133.6 359.4 134.2 359.3 133.6 C 359.3 133.6 359.3 133.6 359.3 133.6 Z M 349.9 123.3 C 350.6 122.8 350.2 124.3 349.9 123.3 C 349.9 123.3 349.9 123.3 349.9 123.3 Z M 359.5 123.6 C 362.6 123.8 359.4 127.6 359.5 123.6 C 359.5 123.6 359.5 123.6 359.5 123.6 Z M 362.6 126.3 C 364.0 127.1 361.5 127.0 361.2 126.3 C 361.4 126.2 362.3 126.2 362.6 126.3 C 362.6 126.3 362.6 126.3 362.6 126.3 Z M 357.7 122.0 C 359.5 122.4 358.3 123.4 357.7 122.0 C 357.7 122.0 357.7 122.0 357.7 122.0 Z M 361.3 124.1 C 361.6 124.8 360.6 123.8 361.3 124.1 C 361.3 124.1 361.3 124.1 361.3 124.1 Z M 357.0 118.4 C 357.3 119.1 356.3 118.1 357.0 118.4 C 357.0 118.4 357.0 118.4 357.0 118.4 Z M 364.7 127.0 C 365.0 127.7 364.0 126.7 364.7 127.0 C 364.7 127.0 364.7 127.0 364.7 127.0 Z M 356.5 119.8 C 355.7 120.2 355.8 123.2 354.2 119.2 C 354.2 118.2 356.3 118.5 356.5 119.8 C 356.5 119.8 356.5 119.8 356.5 119.8 Z M 282.2 47.2 C 279.1 40.2 276.8 44.9 276.0 45.3 C 274.3 45.6 274.4 46.9 274.7 48.5 C 273.6 51.8 278.6 47.8 277.2 50.8 C 275.6 55.1 281.3 49.7 278.7 53.4 C 277.7 54.0 280.3 55.3 280.4 54.9 C 279.9 57.4 283.9 56.2 284.2 55.9 C 284.4 57.0 281.7 59.8 285.8 59.8 C 288.1 60.6 286.1 64.0 287.5 61.7 C 286.6 65.0 289.0 61.9 289.4 63.7 C 289.0 65.7 291.2 62.0 290.4 65.7 C 292.8 64.5 288.6 66.2 293.7 68.8 C 292.0 66.8 297.0 69.2 295.0 69.6 C 292.4 69.6 297.3 71.0 298.3 73.5 C 299.5 73.3 303.2 73.8 301.1 75.2 C 300.8 79.1 304.2 75.8 303.3 78.3 C 303.2 79.6 304.9 78.3 305.2 78.9 C 304.6 80.8 306.0 80.5 307.9 83.1 C 312.2 88.7 311.9 80.6 314.2 82.1 C 315.1 81.8 316.5 74.9 314.5 79.1 C 315.0 77.9 307.7 77.1 313.2 75.7 C 310.3 75.5 314.9 74.6 310.2 73.1 C 312.0 79.8 304.4 69.3 309.6 72.2 C 309.7 70.8 307.8 69.2 308.5 71.0 C 306.8 73.7 306.6 67.1 305.6 71.5 C 303.7 68.1 302.0 71.2 302.9 68.8 C 305.2 65.3 302.3 69.7 301.8 67.5 C 298.8 64.4 304.5 63.5 300.4 63.8 C 298.8 59.4 298.5 64.4 297.1 63.7 C 294.8 65.4 295.5 59.1 298.1 61.1 C 295.8 61.0 298.8 60.0 296.2 59.9 C 295.4 62.7 296.4 56.1 295.3 58.0 C 293.6 57.2 293.1 59.0 292.7 58.6 C 290.8 56.8 293.2 55.6 291.5 56.6 C 290.3 56.9 291.9 53.6 291.0 54.0 C 292.8 56.0 287.5 54.4 288.3 53.2 C 289.6 54.2 290.1 50.2 287.9 50.9 C 284.9 55.8 287.4 48.2 285.1 48.8 C 283.7 51.8 280.7 44.9 283.6 45.7 C 283.3 45.8 282.2 47.3 282.2 47.2 M 290.2 53.8 C 291.5 55.5 288.0 52.5 290.2 53.8 M 290.7 53.1 C 290.6 54.5 289.8 51.1 291.0 52.9 C 291.0 53.0 290.6 53.0 290.7 53.1 M 297.2 59.4 C 296.4 59.9 296.7 58.2 297.2 59.4 M 297.0 62.1 C 297.5 63.7 295.5 60.8 297.0 62.1 M 311.7 75.9 C 306.9 77.8 312.1 72.5 311.7 75.9 M 303.0 65.8 C 300.8 64.5 305.0 65.0 303.0 65.8 M 301.6 66.1 C 300.3 65.8 302.2 65.2 301.6 66.1 M 309.0 73.2 C 309.1 73.3 309.1 73.3 309.0 73.2 C 309.0 73.2 309.0 73.2 309.0 73.2 Z M 313.1 77.5 C 313.2 77.4 313.2 77.4 313.1 77.5 C 313.1 77.5 313.1 77.5 313.1 77.5 Z M 304.6 69.4 C 304.0 67.3 307.0 71.2 304.6 69.4 C 304.6 69.4 304.6 69.4 304.6 69.4 Z M 306.1 80.5 C 305.9 80.5 305.9 80.5 306.1 80.5 C 306.1 80.5 306.1 80.5 306.1 80.5 Z M 287.4 54.0 C 287.3 54.0 287.3 54.0 287.4 54.0 C 287.4 54.0 287.4 54.0 287.4 54.0 Z M 283.9 48.0 C 283.5 48.5 283.3 46.8 283.9 48.0 C 283.9 48.0 283.9 48.0 283.9 48.0 Z M 276.2 47.9 C 276.1 47.9 276.1 47.9 276.2 47.9 C 276.2 47.9 276.2 47.9 276.2 47.9 Z M 284.0 54.2 C 283.9 54.2 283.9 54.2 284.0 54.2 C 284.0 54.2 284.0 54.2 284.0 54.2 Z M 287.2 52.4 C 288.3 49.8 288.5 54.7 287.2 52.4 C 287.2 52.4 287.2 52.4 287.2 52.4 Z M 298.3 72.4 C 299.2 71.6 299.2 73.8 298.3 72.4 C 298.3 72.4 298.3 72.4 298.3 72.4 Z M 296.5 63.0 C 297.1 62.8 297.0 63.9 296.5 63.0 C 296.5 63.0 296.5 63.0 296.5 63.0 Z M 296.3 57.9 C 297.0 57.7 296.8 58.8 296.3 57.9 C 296.3 57.9 296.3 57.9 296.3 57.9 Z M 284.4 47.6 C 284.7 47.6 284.7 47.6 284.4 47.6 C 284.4 47.6 284.4 47.6 284.4 47.6 Z M 284.8 50.7 C 285.3 47.8 285.7 53.4 284.8 50.7 C 284.8 50.7 284.8 50.7 284.8 50.7 Z M 282.3 49.1 C 282.2 50.4 281.0 47.3 282.3 49.1 M 280.8 52.9 C 283.0 53.7 276.4 54.7 280.8 52.9 C 280.8 52.9 280.8 52.9 280.8 52.9 Z M 287.5 61.0 C 287.5 61.2 287.5 61.2 287.5 61.0 C 287.5 61.0 287.5 61.0 287.5 61.0 Z M 291.7 55.2 C 293.0 56.6 290.5 54.8 291.7 55.2 C 291.7 55.2 291.7 55.2 291.7 55.2 Z M 281.0 43.7 C 282.2 45.0 279.7 43.3 281.0 43.7 C 281.0 43.7 281.0 43.7 281.0 43.7 Z M 293.5 63.6 C 295.8 65.5 291.3 63.3 293.5 63.6 C 293.5 63.6 293.5 63.6 293.5 63.6 Z M 303.2 69.3 C 303.2 69.5 303.2 69.5 303.2 69.3 C 303.2 69.3 303.2 69.3 303.2 69.3 Z M 305.3 70.1 C 305.3 70.1 305.3 70.1 305.3 70.1 C 305.3 70.1 305.3 70.1 305.3 70.1 Z M 309.5 77.8 C 309.5 78.0 309.5 78.0 309.5 77.8 C 309.5 77.8 309.5 77.8 309.5 77.8 Z M 307.4 70.5 C 307.4 70.6 307.4 70.6 307.4 70.5 C 307.4 70.5 307.4 70.5 307.4 70.5 Z M 311.1 75.1 C 311.1 75.3 311.1 75.3 311.1 75.1 C 311.1 75.1 311.1 75.1 311.1 75.1 Z M 312.0 73.1 C 312.1 73.2 312.1 73.2 312.0 73.1 C 312.0 73.1 312.0 73.1 312.0 73.1 Z M 295.3 71.4 C 295.4 71.5 295.4 71.5 295.3 71.4 C 295.3 71.4 295.3 71.4 295.3 71.4 Z M 287.3 49.3 C 287.2 49.5 287.2 49.5 287.3 49.3 C 287.3 49.3 287.3 49.3 287.3 49.3 Z M 310.1 75.5 C 310.1 75.6 310.1 75.6 310.1 75.5 C 310.1 75.5 310.1 75.5 310.1 75.5 Z M 298.7 66.7 C 297.2 68.2 299.7 63.9 299.0 66.9 C 298.9 66.9 298.8 66.4 298.7 66.7 M 297.6 70.5 C 297.5 70.5 297.5 70.5 297.6 70.5 C 297.6 70.5 297.6 70.5 297.6 70.5 Z M 292.1 66.8 C 292.0 66.8 292.0 66.8 292.1 66.8 C 292.1 66.8 292.1 66.8 292.1 66.8 Z M 307.0 69.5 C 307.6 68.5 307.5 71.3 306.8 69.4 M 307.0 80.4 C 307.6 79.4 307.5 82.2 306.8 80.3 M 279.0 42.8 C 278.2 43.2 278.5 41.6 279.0 42.8 M 290.3 66.6 C 289.5 67.1 289.8 65.4 290.3 66.6 M 294.3 66.9 C 294.9 65.8 294.8 68.6 294.1 66.7 M 303.9 77.2 C 304.0 77.3 304.0 77.3 303.9 77.2 C 303.9 77.2 303.9 77.2 303.9 77.2 Z M 293.5 57.3 C 293.6 57.4 293.6 57.4 293.5 57.3 C 293.5 57.3 293.5 57.3 293.5 57.3 Z M 297.4 64.7 C 297.7 62.8 297.6 66.4 297.4 64.7 M 289.9 57.7 C 290.2 55.2 291.2 59.9 289.9 57.7 M 309.0 83.1 C 309.5 80.2 309.0 85.0 309.0 83.1 M 307.1 72.8 C 307.5 69.9 307.1 74.6 307.1 72.8 M 293.9 59.2 C 294.7 58.2 294.7 60.9 293.9 59.2 M 282.0 45.5 C 281.0 44.2 284.3 46.4 282.0 45.5 M 300.8 74.2 C 300.8 74.4 300.8 74.4 300.8 74.2 C 300.8 74.2 300.8 74.2 300.8 74.2 Z M 279.5 55.8 C 279.5 55.9 279.5 55.9 279.5 55.8 C 279.5 55.8 279.5 55.8 279.5 55.8 Z M 316.1 79.2 C 316.1 79.3 316.1 79.3 316.1 79.2 C 316.1 79.2 316.1 79.2 316.1 79.2 Z M 305.6 72.8 C 305.5 73.0 305.5 73.0 305.6 72.8 C 305.6 72.8 305.6 72.8 305.6 72.8 Z M 314.0 76.6 C 313.9 76.8 313.9 76.8 314.0 76.6 C 314.0 76.6 314.0 76.6 314.0 76.6 Z M 300.4 70.2 C 300.4 70.3 300.4 70.3 300.4 70.2 C 300.4 70.2 300.4 70.2 300.4 70.2 Z M 303.9 65.2 C 303.9 65.2 303.9 65.2 303.9 65.2 C 303.9 65.2 303.9 65.2 303.9 65.2 Z M 297.8 62.8 C 297.8 62.8 297.8 62.8 297.8 62.8 C 297.8 62.8 297.8 62.8 297.8 62.8 Z M 305.5 67.4 C 308.3 69.7 302.8 67.6 305.5 67.4 C 305.5 67.4 305.5 67.4 305.5 67.4 Z M 296.8 67.3 C 296.8 67.4 296.8 67.4 296.8 67.3 C 296.8 67.3 296.8 67.3 296.8 67.3 Z M 299.5 64.0 C 302.3 64.3 298.3 66.9 299.5 64.0 M 293.5 55.9 C 294.6 55.7 292.7 57.2 293.5 55.9 M 285.0 58.7 C 284.9 58.8 284.9 58.8 285.0 58.7 C 285.0 58.7 285.0 58.7 285.0 58.7 Z M 286.2 59.0 C 286.2 59.2 286.2 59.2 286.2 59.0 C 286.2 59.0 286.2 59.0 286.2 59.0 Z M 292.0 53.9 C 292.0 54.0 292.0 54.0 292.0 53.9 C 292.0 53.9 292.0 53.9 292.0 53.9 Z M 284.7 60.7 C 284.8 60.9 284.8 60.9 284.7 60.7 C 284.7 60.7 284.7 60.7 284.7 60.7 Z M 302.8 64.3 C 302.8 64.4 302.8 64.4 302.8 64.3 C 302.8 64.3 302.8 64.3 302.8 64.3 Z M 315.8 77.2 C 315.8 77.3 315.8 77.3 315.8 77.2 C 315.8 77.2 315.8 77.2 315.8 77.2 Z M 277.9 50.4 C 277.9 50.5 277.9 50.5 277.9 50.4 C 277.9 50.4 277.9 50.4 277.9 50.4 Z M 302.5 67.4 C 302.4 67.5 302.4 67.5 302.5 67.4 C 302.5 67.4 302.5 67.4 302.5 67.4 Z M 283.4 56.6 C 283.4 56.7 283.4 56.7 283.4 56.6 C 283.4 56.6 283.4 56.6 283.4 56.6 Z M 302.0 66.2 C 302.0 66.2 302.0 66.2 302.0 66.2 C 302.0 66.2 302.0 66.2 302.0 66.2 Z M 300.1 74.2 C 300.1 74.3 300.1 74.3 300.1 74.2 C 300.1 74.2 300.1 74.2 300.1 74.2 Z M 301.9 77.9 C 301.9 78.0 301.9 78.0 301.9 77.9 C 301.9 77.9 301.9 77.9 301.9 77.9 Z M 302.8 71.0 C 302.9 71.1 302.9 71.1 302.8 71.0 C 302.8 71.0 302.8 71.0 302.8 71.0 Z M 284.4 53.9 C 280.8 47.3 289.1 57.3 284.4 53.9 M 303.4 72.2 C 300.1 68.3 307.9 73.4 303.4 72.2 C 304.2 72.2 303.5 72.2 303.4 72.2 M 318.1 79.8 C 315.0 79.9 313.5 81.4 312.5 83.7 C 312.5 85.2 315.6 82.0 312.9 84.7 C 310.8 83.6 309.7 89.4 313.1 86.0 C 315.8 87.7 311.2 88.5 313.9 88.5 C 316.6 90.5 314.4 90.3 316.4 91.9 C 319.3 91.1 316.5 93.9 318.8 92.6 C 315.9 93.6 321.3 94.0 320.4 94.9 C 317.6 94.4 326.7 101.2 322.9 96.3 C 325.6 97.2 323.7 98.4 324.0 99.3 C 325.9 98.9 326.0 103.1 328.2 103.0 C 328.3 102.5 327.8 101.9 328.0 101.4 C 328.5 100.4 329.1 102.8 329.0 102.6 C 330.1 102.9 334.1 104.5 329.1 103.5 C 328.0 104.3 332.0 105.6 331.0 106.3 C 333.6 109.0 333.5 105.1 333.3 107.7 C 335.2 109.6 336.5 110.9 336.7 110.7 C 337.7 112.1 336.8 113.4 338.9 113.3 C 339.1 117.7 344.4 111.0 341.3 115.9 C 342.9 115.6 340.9 118.9 343.3 116.3 C 341.4 116.6 345.3 122.2 345.1 118.3 C 346.2 118.3 346.0 124.4 348.1 121.4 C 351.0 120.6 352.6 118.6 352.1 114.6 C 350.9 116.3 351.1 110.6 350.4 114.8 C 351.6 117.6 345.9 112.1 348.0 112.4 C 351.2 109.7 343.4 111.5 344.3 108.2 C 344.1 110.3 339.0 106.3 342.5 105.5 C 341.8 104.4 340.6 105.3 340.9 103.1 C 343.5 106.0 337.6 104.3 339.1 103.2 C 340.4 102.8 337.0 98.0 336.2 99.7 C 334.6 104.2 335.7 98.0 333.8 98.5 C 330.9 96.9 336.8 96.3 332.9 96.8 C 332.8 96.0 329.8 93.0 332.3 94.3 C 332.7 95.3 327.2 95.8 329.5 92.9 C 334.1 94.7 326.6 88.4 326.9 90.3 C 330.4 96.6 320.1 86.7 325.3 89.1 C 324.6 85.5 326.5 89.2 323.2 87.1 C 322.8 88.3 319.9 87.0 322.0 85.8 C 324.0 83.0 318.0 88.4 319.7 83.3 C 320.9 81.7 315.3 81.1 318.1 80.7 C 318.3 80.6 318.2 79.9 318.1 79.8 M 318.8 81.0 C 317.9 81.2 318.9 79.8 318.8 81.0 M 317.8 81.2 C 317.9 81.1 317.9 81.1 317.8 81.2 C 317.8 81.2 317.8 81.2 317.8 81.2 Z M 322.7 86.8 C 322.8 86.7 322.8 86.7 322.7 86.8 C 322.7 86.8 322.7 86.8 322.7 86.8 Z M 320.7 97.1 C 320.8 97.0 320.8 97.0 320.7 97.1 C 320.7 97.1 320.7 97.1 320.7 97.1 Z M 326.1 90.5 C 326.1 90.4 326.1 90.4 326.1 90.5 C 326.1 90.5 326.1 90.5 326.1 90.5 Z M 320.5 85.3 C 320.4 85.3 320.4 85.3 320.5 85.3 C 320.5 85.3 320.5 85.3 320.5 85.3 Z M 326.7 89.2 C 326.0 90.4 326.1 87.3 326.9 89.2 C 326.9 89.3 326.6 89.0 326.7 89.2 M 331.6 93.4 C 331.5 93.6 331.5 93.6 331.6 93.4 M 334.5 110.8 C 334.4 110.9 334.4 110.9 334.5 110.8 M 342.6 104.3 C 342.6 104.5 342.6 104.5 342.6 104.3 M 335.2 98.9 C 336.7 100.2 335.1 99.7 335.2 98.9 M 345.7 108.5 C 344.6 106.2 348.1 109.9 345.7 108.5 M 348.0 109.7 C 348.1 109.9 348.1 109.9 348.0 109.7 M 339.7 102.1 C 339.6 102.1 339.6 102.1 339.7 102.1 C 339.7 102.1 339.7 102.1 339.7 102.1 Z M 335.0 98.0 C 333.7 95.6 337.7 99.0 335.0 98.0 M 324.2 86.5 C 325.7 87.1 323.0 87.7 324.2 86.5 M 321.6 85.0 C 321.6 85.0 321.6 85.0 321.6 85.0 C 321.6 85.0 321.6 85.0 321.6 85.0 Z M 343.0 105.6 C 342.9 105.6 342.9 105.6 343.0 105.6 C 343.0 105.6 343.0 105.6 343.0 105.6 Z M 345.2 107.5 C 345.1 107.4 345.1 107.4 345.2 107.5 C 345.2 107.5 345.2 107.5 345.2 107.5 Z M 341.8 117.6 C 341.7 117.6 341.7 117.6 341.8 117.6 C 341.8 117.6 341.8 117.6 341.8 117.6 Z M 320.4 89.3 C 319.5 87.5 324.0 88.5 322.1 89.9 C 321.5 90.7 320.7 89.3 320.4 89.3 M 331.6 98.7 C 329.7 101.3 333.4 94.2 331.6 98.7 M 346.7 111.4 C 345.4 115.5 347.0 107.8 346.7 111.4 M 350.0 113.7 C 350.3 115.1 344.5 108.9 349.4 112.3 C 350.3 112.3 350.0 113.1 350.0 113.7 M 330.6 94.6 C 329.7 96.3 328.9 91.9 330.6 94.6 M 335.2 106.9 C 336.6 106.7 339.1 107.7 336.9 108.4 C 335.1 110.1 333.7 106.7 335.2 106.9 M 317.9 82.8 C 321.0 81.8 316.1 84.4 317.9 82.8 M 323.0 88.3 C 323.2 88.2 323.2 88.2 323.0 88.3 C 323.0 88.3 323.0 88.3 323.0 88.3 Z M 325.5 90.0 C 325.4 90.3 325.4 90.3 325.5 90.0 M 320.5 81.8 C 320.5 82.1 320.5 82.1 320.5 81.8 M 337.2 104.7 C 337.2 105.0 337.2 105.0 337.2 104.7 M 334.3 99.1 C 334.3 103.1 332.8 98.4 334.3 99.1 M 325.4 97.9 C 325.1 99.5 324.0 96.7 325.4 97.9 M 338.4 101.7 C 338.0 105.0 334.6 101.5 338.4 101.7 M 333.5 97.8 C 333.6 97.9 333.6 97.9 333.5 97.8 C 333.5 97.8 333.5 97.8 333.5 97.8 Z M 335.5 107.6 C 335.4 107.6 335.4 107.6 335.5 107.6 C 335.5 107.6 335.5 107.6 335.5 107.6 Z M 336.2 108.1 C 336.1 108.1 336.1 108.1 336.2 108.1 C 336.2 108.1 336.2 108.1 336.2 108.1 Z M 340.4 103.2 C 340.3 103.2 340.3 103.2 340.4 103.2 C 340.4 103.2 340.4 103.2 340.4 103.2 Z M 316.2 90.1 C 317.5 91.7 314.8 89.3 316.2 90.1 C 316.2 90.1 316.2 90.1 316.2 90.1 Z M 328.3 90.9 C 329.2 94.8 325.2 90.7 328.3 90.9 C 328.3 90.9 328.3 90.9 328.3 90.9 Z M 328.5 96.1 C 328.4 96.3 328.4 96.3 328.5 96.1 C 328.5 96.1 328.5 96.1 328.5 96.1 Z M 338.7 99.6 C 338.6 99.7 338.6 99.7 338.7 99.6 C 338.7 99.6 338.7 99.6 338.7 99.6 Z M 316.7 91.1 C 316.6 91.2 316.6 91.2 316.7 91.1 C 316.7 91.1 316.7 91.1 316.7 91.1 Z M 343.5 108.4 C 343.4 108.5 343.4 108.5 343.5 108.4 C 343.5 108.4 343.5 108.4 343.5 108.4 Z M 331.3 104.0 C 332.5 103.8 330.8 104.7 331.3 104.0 C 331.3 104.0 331.3 104.0 331.3 104.0 Z M 333.4 106.2 C 333.5 106.2 333.5 106.2 333.4 106.2 C 333.4 106.2 333.4 106.2 333.4 106.2 Z M 348.7 110.1 C 348.8 110.1 348.8 110.1 348.7 110.1 C 348.7 110.1 348.7 110.1 348.7 110.1 Z M 337.1 113.5 C 337.2 113.5 337.2 113.5 337.1 113.5 C 337.1 113.5 337.1 113.5 337.1 113.5 Z M 341.2 113.1 C 341.1 113.1 341.1 113.1 341.2 113.1 C 341.2 113.1 341.2 113.1 341.2 113.1 Z M 339.6 103.3 C 342.1 105.1 338.2 103.7 339.6 103.3 C 339.6 103.3 339.6 103.3 339.6 103.3 Z M 347.2 117.8 C 347.1 118.0 347.1 118.0 347.2 117.8 C 347.2 117.8 347.2 117.8 347.2 117.8 Z M 350.9 116.3 C 350.8 116.5 350.8 116.5 350.9 116.3 C 350.9 116.3 350.9 116.3 350.9 116.3 Z M 352.8 115.5 C 352.8 115.6 352.8 115.6 352.8 115.5 C 352.8 115.5 352.8 115.5 352.8 115.5 Z M 322.6 92.8 C 322.7 92.7 322.7 92.7 322.6 92.8 C 322.6 92.8 322.6 92.8 322.6 92.8 Z M 326.0 87.7 C 326.0 87.6 326.0 87.6 326.0 87.7 C 326.0 87.7 326.0 87.7 326.0 87.7 Z M 329.2 90.4 C 329.2 90.4 329.2 90.4 329.2 90.4 C 329.2 90.4 329.2 90.4 329.2 90.4 Z M 319.5 94.9 C 319.5 94.8 319.5 94.8 319.5 94.9 C 319.5 94.9 319.5 94.9 319.5 94.9 Z M 334.1 102.3 C 334.2 102.1 334.2 102.1 334.1 102.3 C 334.1 102.3 334.1 102.3 334.1 102.3 Z M 333.5 105.0 C 333.5 104.9 333.5 104.9 333.5 105.0 C 333.5 105.0 333.5 105.0 333.5 105.0 Z M 328.6 104.8 C 328.6 104.7 328.6 104.7 328.6 104.8 C 328.6 104.8 328.6 104.8 328.6 104.8 Z M 332.8 107.3 C 332.8 107.2 332.8 107.2 332.8 107.3 C 332.8 107.3 332.8 107.3 332.8 107.3 Z M 312.9 86.7 C 312.9 86.7 312.9 86.7 312.9 86.7 C 312.9 86.7 312.9 86.7 312.9 86.7 Z M 316.0 83.2 C 315.8 83.2 315.8 83.2 316.0 83.2 C 316.0 83.2 316.0 83.2 316.0 83.2 Z M 336.9 100.2 C 338.0 100.0 336.9 102.2 336.9 100.2 M 332.2 96.4 C 332.2 96.5 332.2 96.5 332.2 96.4 C 332.2 96.4 332.2 96.4 332.2 96.4 Z M 343.8 107.4 C 343.0 109.2 342.5 104.8 343.8 107.4 C 343.8 107.4 343.8 107.4 343.8 107.4 Z M 336.1 110.6 C 336.1 110.7 336.1 110.7 336.1 110.6 C 336.1 110.6 336.1 110.6 336.1 110.6 Z M 337.8 111.2 C 337.7 111.4 337.7 111.4 337.8 111.2 C 337.8 111.2 337.8 111.2 337.8 111.2 Z M 347.4 113.7 C 347.3 114.0 347.3 114.0 347.4 113.7 M 332.9 94.8 C 332.9 95.9 332.9 95.7 332.9 94.8 M 345.2 108.9 C 345.1 108.9 345.1 108.9 345.2 108.9 C 345.2 108.9 345.2 108.9 345.2 108.9 Z M 349.4 114.4 C 349.3 114.3 349.3 114.3 349.4 114.4 C 349.4 114.4 349.4 114.4 349.4 114.4 Z M 329.0 92.6 C 327.5 94.3 327.3 93.4 329.0 92.6 M 320.2 84.8 C 320.1 84.9 320.1 84.9 320.2 84.8 C 320.2 84.8 320.2 84.8 320.2 84.8 Z M 320.2 84.8 " fill="#E42731"></path></g></g></g></svg>