<?xml version="1.0" encoding="UTF-8" standalone="no"?><svg xmlns="http://www.w3.org/2000/svg" xmlns:xlink="http://www.w3.org/1999/xlink" clip-rule="evenodd" stroke-miterlimit="4.00" viewBox="0 0 1920 1080"><desc>SVG generated by Keynote</desc><defs></defs><g transform="matrix(1.00, 0.00, -0.00, -1.00, 0.0, 1080.0)"><path d="M 0.0 1080.0 L 1920.0 1080.0 L 1920.0 0.0 L 0.0 0.0 Z M 0.0 1080.0 " fill="#FFFFFF"></path><g><clipPath id="clip-535"><path d="M 0.0 -1.7 L 1920.0 -1.7 L 1920.0 970.2 L 0.0 970.2 Z M 0.0 -1.7 "></path></clipPath><g clip-path="url(#clip-535)"><image xlink:href="0E9674FCB94954571909AC653C0ABB41.png" width="960.00" height="432.00" transform="matrix(2.00, 0.00, -0.00, -2.25, 0.0, 970.0)" opacity="0.39"></image></g></g><g><clipPath id="clip-536"><path d="M -1.0 971.2 L -1.0 380.8 L 1921.0 380.8 L 1921.0 971.2 Z M -1.0 971.2 "></path></clipPath><g clip-path="url(#clip-536)"><g><clipPath id="clip-537"><path d="M -0.0 970.2 L -0.0 381.8 L 1920.0 381.8 L 1920.0 970.2 Z M -0.0 970.2 "></path></clipPath><g clip-path="url(#clip-537)"><image xlink:href="822504E55217FE6610F58EA53ED987E9.png" width="167.00" height="541.00" transform="matrix(0.00, -3.53, -3.55, 0.00, 1921.0, 971.2)"></image></g></g></g></g><g><clipPath id="clip-538"><path d="M 923.2 380.4 L 923.2 971.6 L 996.8 971.6 L 996.8 380.4 Z M 923.2 380.4 "></path></clipPath><g clip-path="url(#clip-538)"><text xml:space="preserve" font-family="ArialMT" font-size="18.0" fill="#FFFFFF" transform="matrix(0.00, 1.00, 1.00, -0.00, 966.0, 676.0)"> </text><text xml:space="preserve" font-family="ArialMT" font-size="18.0" fill="#FFFFFF" transform="matrix(0.00, 1.00, 1.00, -0.00, 966.0, 681.0)"> </text><text xml:space="preserve" font-family="ArialMT" font-size="18.0" fill="#FFFFFF" transform="matrix(0.00, 1.00, 1.00, -0.00, 966.0, 686.0)"> </text><text xml:space="preserve" font-family="ArialMT" font-size="18.0" fill="#FFFFFF" transform="matrix(0.00, 1.00, 1.00, -0.00, 966.0, 691.0)"> </text></g></g></g></svg>