<?xml version="1.0" encoding="UTF-8" standalone="no"?><svg xmlns="http://www.w3.org/2000/svg" xmlns:xlink="http://www.w3.org/1999/xlink" clip-rule="evenodd" stroke-miterlimit="4.00" viewBox="0 0 1920 1080"><desc>SVG generated by Keynote</desc><defs></defs><g transform="matrix(1.00, 0.00, -0.00, -1.00, 0.0, 1080.0)"><path d="M 0.0 1080.0 L 1920.0 1080.0 L 1920.0 0.0 L 0.0 0.0 Z M 0.0 1080.0 " fill="#FFFFFF"></path><g><clipPath id="clip-544"><path d="M 0.0 -1.7 L 1920.0 -1.7 L 1920.0 970.2 L 0.0 970.2 Z M 0.0 -1.7 "></path></clipPath><g clip-path="url(#clip-544)"><image xlink:href="../../B7C67258-78FD-4DD7-92B9-F6AED1AA8DD7/assets/0E9674FCB94954571909AC653C0ABB41.png" width="960.00" height="432.00" transform="matrix(2.00, 0.00, -0.00, -2.25, 0.0, 970.0)" opacity="0.39"></image></g></g><g><clipPath id="clip-545"><path d="M -1.0 971.2 L -1.0 380.8 L 1921.0 380.8 L 1921.0 971.2 Z M -1.0 971.2 "></path></clipPath><g clip-path="url(#clip-545)"><g><clipPath id="clip-546"><path d="M -0.0 970.2 L -0.0 381.8 L 1920.0 381.8 L 1920.0 970.2 Z M -0.0 970.2 "></path></clipPath><g clip-path="url(#clip-546)"><image xlink:href="../../B7C67258-78FD-4DD7-92B9-F6AED1AA8DD7/assets/822504E55217FE6610F58EA53ED987E9.png" width="167.00" height="541.00" transform="matrix(0.00, -3.53, -3.55, 0.00, 1921.0, 971.2)"></image></g></g></g></g><g><clipPath id="clip-547"><path d="M 923.2 380.4 L 923.2 971.6 L 996.8 971.6 L 996.8 380.4 Z M 923.2 380.4 "></path></clipPath><g clip-path="url(#clip-547)"><text xml:space="preserve" font-family="ArialMT" font-size="18.0" fill="#FFFFFF" transform="matrix(0.00, 1.00, 1.00, -0.00, 966.0, 676.0)"> </text><text xml:space="preserve" font-family="ArialMT" font-size="18.0" fill="#FFFFFF" transform="matrix(0.00, 1.00, 1.00, -0.00, 966.0, 681.0)"> </text><text xml:space="preserve" font-family="ArialMT" font-size="18.0" fill="#FFFFFF" transform="matrix(0.00, 1.00, 1.00, -0.00, 966.0, 686.0)"> </text><text xml:space="preserve" font-family="ArialMT" font-size="18.0" fill="#FFFFFF" transform="matrix(0.00, 1.00, 1.00, -0.00, 966.0, 691.0)"> </text></g></g><image xlink:href="../../7CE542E9-33FC-458B-B573-B6A4D44EDA97/assets/02C60ABF6FEF36D0423CBA1A1A4EA116.png" width="201.00" height="173.00" transform="matrix(3.22, 0.00, -0.00, -3.22, 1244.0, 1084.0)"></image><g><clipPath id="clip-548"><path d="M 1592.0 427.8 L 1592.0 427.8 C 1592.0 511.6 1660.3 579.6 1744.5 579.6 L 1744.5 579.6 C 1828.7 579.6 1897.0 511.6 1897.0 427.8 L 1897.0 427.8 C 1897.0 343.9 1828.7 275.9 1744.5 275.9 L 1744.5 275.9 C 1660.3 275.9 1592.0 343.9 1592.0 427.8 Z M 1592.0 427.8 "></path></clipPath><g clip-path="url(#clip-548)"><image xlink:href="../../7CE542E9-33FC-458B-B573-B6A4D44EDA97/assets/FCD6658A442D1C6DD4638170C9FA3F37.jpeg" width="107.00" height="106.00" transform="matrix(2.85, 0.00, -0.00, -2.87, 1592.0, 580.0)"></image></g></g><image xlink:href="../../7CE542E9-33FC-458B-B573-B6A4D44EDA97/assets/DB08BADAE61BA43BCEDC696D2FF86E0A.png" width="132.00" height="153.00" transform="matrix(2.54, 0.00, -0.00, -2.54, -11.0, 638.0)"></image><image xlink:href="../../7CE542E9-33FC-458B-B573-B6A4D44EDA97/assets/7988C2652CC993C66CB23531F1BA3C55.png" width="431.00" height="177.00" transform="matrix(1.68, 0.00, -0.00, -1.68, 51.0, 333.0)"></image><image xlink:href="../../7CE542E9-33FC-458B-B573-B6A4D44EDA97/assets/21093963C385043EE9C4379F8284E57A.png" width="593.00" height="237.00" transform="matrix(1.00, 0.00, -0.00, -1.00, 550.0, 563.0)"></image><image xlink:href="../../7CE542E9-33FC-458B-B573-B6A4D44EDA97/assets/6A7EC5EECD8014979A304A86264B277D.png" width="268.00" height="268.00" transform="matrix(1.00, 0.00, -0.00, -1.00, 1395.0, 286.0)"></image><image xlink:href="../../7CE542E9-33FC-458B-B573-B6A4D44EDA97/assets/0148098C215285EBB667ABDBD3BFEBB6.png" width="400.00" height="200.00" transform="matrix(1.22, 0.00, -0.00, -1.22, 841.0, 306.0)"></image><image xlink:href="../../7CE542E9-33FC-458B-B573-B6A4D44EDA97/assets/FAA430B60F13D8CEF1D5DDEC29269C04.png" width="320.00" height="72.00" transform="matrix(1.42, 0.00, -0.00, -1.43, 832.0, 1049.0)"></image><image xlink:href="../../7CE542E9-33FC-458B-B573-B6A4D44EDA97/assets/EAD2F59D72A5D0631235532B2593D591.png" width="376.00" height="134.00" transform="matrix(1.00, 0.00, -0.00, -1.00, 139.0, 799.0)"></image><image xlink:href="../../7CE542E9-33FC-458B-B573-B6A4D44EDA97/assets/CF770C0695A035D7A964C92DD916227B.png" width="462.00" height="109.00" transform="matrix(1.25, 0.00, -0.00, -1.25, 601.0, 918.0)"></image><image xlink:href="../../7CE542E9-33FC-458B-B573-B6A4D44EDA97/assets/ED97707D22E511BF808836DD76D6DDB7.png" width="295.00" height="224.00" transform="matrix(2.01, 0.00, -0.00, -2.01, 661.0, 913.0)"></image><image xlink:href="../../7CE542E9-33FC-458B-B573-B6A4D44EDA97/assets/E909C60570582102D95F812E3F3BFB48.png" width="201.00" height="201.00" transform="matrix(1.00, 0.00, -0.00, -1.00, -4.0, 1074.0)"></image><image xlink:href="../../7CE542E9-33FC-458B-B573-B6A4D44EDA97/assets/673CE88FC913F99998C358FAFF67AD09.png" width="252.00" height="252.00" transform="matrix(1.00, 0.00, -0.00, -1.00, 201.0, 1078.0)"></image></g></svg>